<?xml version="1.0" encoding="UTF-8" standalone="no"?>
<!-- Created with Inkscape (http://www.inkscape.org/) -->

<svg
   xmlns:dc="http://purl.org/dc/elements/1.1/"
   xmlns:cc="http://creativecommons.org/ns#"
   xmlns:rdf="http://www.w3.org/1999/02/22-rdf-syntax-ns#"
   xmlns:svg="http://www.w3.org/2000/svg"
   xmlns="http://www.w3.org/2000/svg"
   xmlns:sodipodi="http://sodipodi.sourceforge.net/DTD/sodipodi-0.dtd"
   xmlns:inkscape="http://www.inkscape.org/namespaces/inkscape"
   width="210mm"
   height="297mm"
   id="svg2"
   version="1.1"
   inkscape:version="0.48.4 r9939"
   sodipodi:docname="schneekökschen.svg">
  <sodipodi:namedview
     id="base"
     pagecolor="#ffffff"
     bordercolor="#666666"
     borderopacity="1.0"
     inkscape:pageopacity="0.0"
     inkscape:pageshadow="2"
     inkscape:zoom="0.98994949"
     inkscape:cx="405.52013"
     inkscape:cy="629.16017"
     inkscape:document-units="px"
     inkscape:current-layer="layer1"
     showgrid="false"
     inkscape:window-width="979"
     inkscape:window-height="744"
     inkscape:window-x="45"
     inkscape:window-y="24"
     inkscape:window-maximized="1" />
  <defs
     id="defs4" />
  <metadata
     id="metadata7">
    <rdf:RDF>
      <cc:Work
         rdf:about="">
        <dc:format>image/svg+xml</dc:format>
        <dc:type
           rdf:resource="http://purl.org/dc/dcmitype/StillImage" />
        <dc:title />
      </cc:Work>
    </rdf:RDF>
  </metadata>
  <g
     id="layer1"
     inkscape:groupmode="layer"
     inkscape:label="Ebene 1">
    <path
       inkscape:connector-curvature="0"
       id="path2996"
       d="m 194.78858,562.56568 0.0134,-44.08222 1.62758,-3.68049 c 2.5282,-5.71706 7.69561,-21.24645 7.06976,-21.24645 -0.40082,0 -5.76562,5.68806 -7.02153,7.44462 -0.62498,0.87412 -1.26137,1.5893 -1.4142,1.5893 -0.15283,0 -0.27787,-1.17498 -0.27787,-2.61108 0,-2.55847 0.0242,-2.63432 1.19961,-3.76414 1.53438,-1.47482 2.08733,-2.55147 2.52424,-4.9149 0.50838,-2.75012 1.44358,-4.4356 2.46109,-4.4356 0.87374,0 1.51063,0.83711 1.51063,1.98554 0,1.88453 2.92097,-0.36244 3.83355,-2.94898 0.75309,-2.13447 0.66348,-2.22615 -0.88247,-0.90288 -2.62998,2.25116 -3.45129,1.25674 -1.43493,-1.73737 0.99716,-1.48071 1.123,-1.86394 0.80633,-2.45564 -0.20638,-0.38562 -1.97221,-2.60539 -3.92408,-4.93282 -1.95187,-2.32743 -4.12151,-5.04712 -4.82141,-6.04376 l -1.27256,-1.81207 0,-131.43835 0,-131.43836 46.0193,0 c 29.74956,0 47.16798,0.12379 49.26836,0.35014 5.60622,0.60417 10.19759,2.14328 17.63644,5.91206 4.10269,2.07856 6.57057,3.91286 10.03769,7.46073 3.30589,3.38286 8.75632,6.86563 14.09239,9.00487 3.97631,1.59411 10.46112,4.98694 17.27031,9.03576 3.15648,1.87688 17.88605,14.59289 22.14773,19.12008 3.64895,3.8763 7.22806,8.78284 10.36372,14.20744 1.45431,2.51591 3.39922,5.72534 4.32203,7.13207 2.24716,3.42557 5.11519,9.50652 5.9836,12.68672 0.60247,2.20632 0.7081,3.54199 0.72046,9.10989 0.016,7.20972 -0.30765,9.64044 -2.30248,17.29197 -1.56081,5.98678 -3.18752,9.92582 -7.92011,19.17833 l -4.02179,7.86286 0.18802,2.30731 c 0.12043,1.47774 0.49431,2.93332 1.03988,4.04843 0.46852,0.95762 0.85185,1.96966 0.85185,2.24899 0,0.69663 2.20543,3.90008 6.51492,9.46312 9.62965,12.43075 13.09236,19.74704 13.47078,28.46213 0.29347,6.75862 -1.08292,11.53818 -4.76314,16.54021 -0.88007,1.19616 -3.49829,3.9805 -5.81827,6.18741 -7.05132,6.70768 -9.84858,9.60483 -11.47082,11.88045 -1.70326,2.38927 -8.07257,14.73094 -11.13758,21.58105 -2.87089,6.41625 -5.31195,12.61126 -7.56687,19.20352 -4.51536,13.20065 -6.43074,22.21767 -7.88469,37.11874 -0.27072,2.77444 -1.93913,3.92409 -3.47127,2.39195 -0.6152,-0.6152 -0.65825,-0.96609 -0.48237,-3.93143 0.2082,-3.5102 0.68177,-8.87627 1.03295,-11.70433 l 0.21812,-1.7566 -4.47992,-0.004 c -4.74599,-0.004 -6.7787,-0.36625 -9.33148,-1.66198 -7.3461,-3.72873 -13.59826,-10.3862 -17.42723,-18.55702 -1.59257,-3.39845 -3.31087,-9.89283 -3.31471,-12.52808 -0.003,-1.79044 0.0144,-1.82018 2.77457,-4.85156 4.42926,-4.86445 11.97311,-14.09072 14.29742,-17.486 0.27024,-0.39477 1.37685,-1.9757 2.45912,-3.51319 3.1833,-4.52224 6.83353,-10.78123 9.63071,-16.51363 2.2253,-4.56043 2.5386,-5.40847 2.11504,-5.72492 -0.76702,-0.57305 -0.57257,-1.23694 0.57721,-1.97065 1.1507,-0.7343 1.67424,-2.01938 3.80296,-9.33474 2.01609,-6.92829 2.17522,-8.58718 2.35224,-24.52119 0.0981,-8.82871 0.0253,-15.76721 -0.18703,-17.83654 -0.71588,-6.97613 -2.40073,-12.89738 -4.36555,-15.34233 -0.9508,-1.18314 -1.41957,-1.4045 -5.95328,-2.81118 -2.70667,-0.83979 -7.40555,-2.24747 -10.44195,-3.12817 -6.41602,-1.86093 -12.09019,-4.54452 -17.93133,-8.48058 -6.20606,-4.18196 -11.7921,-9.26367 -14.48418,-13.17648 -0.5916,-0.85985 -1.30109,-1.56337 -1.57665,-1.56337 -0.27555,0 -2.56444,2.00553 -5.08642,4.45674 -5.41703,5.26502 -5.48901,5.31781 -11.00481,8.06938 -11.16732,5.57084 -21.95647,7.87837 -46.27851,9.89779 -9.72292,0.80728 -12.46709,1.17622 -15.38386,2.06831 -5.20738,1.59267 -8.62896,4.31338 -10.57321,8.40742 -2.12921,4.48351 -2.28077,8.89448 -0.65729,19.12908 1.05607,6.65756 1.05487,7.37433 -0.0205,12.17225 -1.02357,4.56675 -1.77455,6.65465 -4.38092,12.17993 l -1.92836,4.08797 -0.11676,3.68048 c -0.12861,4.05379 0.0523,5.11658 2.22156,13.04901 2.43133,8.89088 5.11972,16.19096 8.86872,24.08225 5.22057,10.98882 9.53338,18.359 12.80633,21.88479 l 2.04445,2.20239 1.36993,-0.94936 c 0.75346,-0.52215 2.6942,-2.163 4.31276,-3.64633 1.61855,-1.48333 4.32236,-3.72369 6.00846,-4.97857 4.026,-2.99634 11.8547,-10.36289 21.31059,-20.05253 l 7.64674,-7.83576 2.01234,0.0124 c 1.66832,0.0103 2.11549,0.1398 2.61578,0.75764 0.73374,0.90613 1.13244,4.01795 1.10165,8.59847 -0.0317,4.7248 -0.44939,6.14716 -2.54214,8.65772 -0.96338,1.15572 -2.62322,3.31962 -3.68854,4.80867 -1.88155,2.62996 -4.7044,5.67124 -8.17981,8.8128 -1.75687,1.5881 -3.44155,4.49095 -4.98333,8.58672 l -0.78719,2.09119 5.26691,-0.004 c 5.74575,-0.004 7.86828,-0.22239 7.67906,-0.79005 -0.0674,-0.20213 -1.87984,-1.40466 -4.02769,-2.6723 -3.28852,-1.94086 -3.90519,-2.43383 -3.90519,-3.12188 0,-2.22952 1.17262,-2.8591 5.85533,-3.14373 2.16599,-0.13165 5.26383,-0.61103 7.52827,-1.16495 3.08027,-0.7535 4.63522,-0.94396 7.7954,-0.95485 4.46489,-0.0154 4.57089,0.041 4.5793,2.43651 l 0.005,1.45924 -1.08741,-0.19673 c -2.30973,-0.41788 -8.11896,-0.22423 -8.96534,0.29886 -0.59353,0.36682 -4.32819,1.17812 -6.4258,1.39592 -0.8821,0.0916 -1.5893,0.33675 -1.58929,0.55096 10e-6,0.21227 0.52698,0.80642 1.17106,1.32033 0.81897,0.65345 1.17137,1.20674 1.17209,1.84024 0.001,0.88059 0.0594,0.90779 2.09119,0.97494 1.86446,0.0616 5.95779,0.80558 12.22253,2.22147 2.06451,0.4666 2.12453,0.46006 3.3459,-0.36462 0.68402,-0.46186 1.3543,-1.00886 1.4895,-1.21555 0.43732,-0.66855 0.2675,-2.31446 -0.58346,-5.65487 -0.96971,-3.8065 -1.01189,-4.46065 -0.33154,-5.141 0.76698,-0.76698 0.60079,-2.00821 -0.41824,-3.1237 -0.50607,-0.55397 -2.57634,-1.89056 -4.60061,-2.97021 -2.04748,-1.09202 -3.72857,-2.2067 -3.78887,-2.51226 -0.23928,-1.21273 1.07087,-0.97624 4.54399,0.82022 3.35481,1.73527 3.62678,1.81605 6.49321,1.92872 1.64546,0.0647 3.47759,0.0265 4.0714,-0.0849 0.6547,-0.12282 2.37324,-1.25559 4.36617,-2.87796 3.00718,-2.44801 4.55679,-3.2375 4.55679,-2.32157 0,0.19462 -0.92059,1.43678 -2.04576,2.76037 -2.43173,2.86054 -2.97309,3.99741 -2.97309,6.24356 0,1.52524 0.0709,1.68298 0.75283,1.6761 1.35806,-0.0137 9.43467,1.07292 10.20499,1.37296 1.13168,0.4408 0.93373,1.06004 -1.10837,3.46714 -1.70988,2.01552 -1.9683,2.19388 -3.1786,2.19388 -1.31286,0 -1.31741,-0.005 -1.31741,-1.33199 0,-1.39872 -0.13023,-1.49757 -2.30893,-1.75259 -0.76796,-0.0899 -0.80473,-0.004 -0.83647,1.96108 l -0.0332,2.0551 3.22547,-0.17784 c 3.70313,-0.20417 8.35267,0.39939 9.34909,1.21362 0.94772,0.77444 1.63693,3.75849 1.64154,7.10729 0.008,5.99795 -2.77662,13.31828 -7.33844,19.2898 l -2.37041,3.10292 0.53209,3.58887 c 0.29264,1.97388 0.67124,4.32461 0.84133,5.22384 0.17009,0.89924 0.30925,2.36725 0.30925,3.26225 0,1.48907 -0.0674,1.62728 -0.79326,1.62728 -0.71707,0 -0.81444,-0.18477 -1.01381,-1.92389 -0.12131,-1.05814 -0.72545,-4.47984 -1.34254,-7.60379 l -1.12199,-5.67989 2.42965,-2.36739 c 2.21366,-2.15693 4.15542,-4.98275 3.72184,-5.41633 -0.0959,-0.0959 -0.9409,0.10131 -1.8778,0.43822 -1.36293,0.4901 -1.85223,0.88259 -2.44765,1.96336 l -0.74419,1.3508 -3.17303,0.0892 c -1.74517,0.0491 -3.34763,0.15205 -3.56102,0.22883 -0.27666,0.0996 -0.29976,0.50598 -0.0805,1.41643 0.16912,0.70226 1.12091,6.0691 2.11509,11.92632 0.99418,5.85722 1.89518,10.73708 2.00223,10.84413 0.35396,0.35396 3.01211,-0.60964 4.98214,-1.80606 2.43043,-1.47604 3.0799,-1.32647 2.80217,0.64538 -0.26924,1.91167 -1.10707,4.63511 -1.65751,5.38787 -0.40208,0.54989 -0.75601,0.58944 -3.34496,0.37378 -1.59241,-0.13265 -3.13108,-0.41359 -3.41926,-0.62431 -0.51672,-0.37784 -1.02335,-2.17469 -2.02661,-7.18778 -0.73707,-3.68298 -0.64005,-3.56267 -2.02261,-2.50814 -1.6864,1.28629 -7.34107,9.90149 -10.14232,15.45241 -1.0424,2.06562 -3.0994,7.87667 -3.52949,9.97088 -0.20147,0.98103 -0.1455,1.05886 0.89011,1.23772 0.60779,0.10498 4.34225,0.2755 8.29877,0.37895 3.95653,0.10344 9.64037,0.27504 12.63077,0.38133 l 5.43709,0.19326 0.004,-1.11718 c 0.005,-1.44269 0.79029,-4.38544 1.4038,-5.26134 1.59981,-2.28404 4.97237,-3.29704 8.35195,-2.50864 3.54572,0.82716 5.80804,2.26349 9.58584,6.08597 l 3.45254,3.49338 2.40278,0.27863 c 1.32153,0.15325 4.54834,0.28524 7.17069,0.29332 l 4.76789,0.0147 0.008,-5.77168 c 0.008,-5.37479 0.14569,-6.72417 1.02921,-10.05854 0.27542,-1.03944 0.47244,-1.25622 1.06428,-1.17107 1.11051,0.15977 1.31808,2.14617 1.08607,10.39314 l -0.20474,7.27733 1.46812,0 1.46813,0 0.20574,-4.30121 c 0.44875,-9.38166 2.36284,-18.57246 7.43122,-35.68229 2.80702,-9.4759 4.25175,-13.23526 7.34649,-19.11641 3.62532,-6.88945 7.33288,-12.53271 15.02837,-22.87462 5.18129,-6.9631 12.69446,-14.25677 24.12782,-23.42289 10.84707,-8.6961 21.96878,-18.6808 24.0155,-21.56031 2.37661,-3.34364 4.21658,-6.56997 5.35054,-9.38204 1.06241,-2.63465 1.08123,-2.77454 1.05861,-7.86848 -0.0217,-4.88986 -0.0833,-5.36774 -1.07721,-8.36475 -2.98814,-9.00998 -10.96004,-17.17245 -22.32105,-22.85463 -8.5121,-4.2573 -22.47881,-5.55397 -30.1443,-2.79859 -1.3614,0.48936 -1.37287,0.4867 -1.92389,-0.44611 -0.81255,-1.37554 -0.72536,-2.62258 0.1985,-2.83902 5.16404,-1.20981 7.8014,-1.55714 11.69254,-1.53987 8.17602,0.0363 14.66119,1.57917 22.17855,5.27646 6.39601,3.14578 9.98617,5.60876 13.07939,8.97296 6.42256,6.98521 9.7509,12.649 11.20817,19.07282 0.532,2.34513 0.42329,8.05485 -0.20847,10.94862 -0.76693,3.51295 -3.36051,8.53033 -6.70678,12.97456 -1.59345,2.11628 -3.27762,4.45004 -3.74259,5.18614 -0.46498,0.7361 -1.66861,2.27939 -2.67475,3.42955 l -1.82933,2.09118 2.13205,0.002 c 1.17262,10e-4 3.66291,-0.17518 5.53398,-0.39162 2.62795,-0.30399 4.14776,-0.30186 6.68008,0.009 11.69916,1.43774 19.64376,6.19894 25.99094,15.5764 7.88105,11.64362 18.97626,23.25676 28.477,29.80631 12.51443,8.62712 22.3735,20.13066 29.57289,34.50557 3.73943,7.46645 5.65654,12.44897 8.09414,21.03636 0.94026,3.31244 1.99733,6.96277 2.34905,8.11185 0.84839,2.77163 2.33889,12.86007 2.32209,15.71707 -0.007,1.248 -0.35456,3.861 -0.77163,5.80671 -0.74396,3.47063 -0.80616,3.60048 -3.28628,6.85909 -3.2755,4.30369 -3.40827,4.52958 -4.4422,7.55825 -0.48138,1.4101 -1.53403,3.54625 -2.33923,4.74699 -1.02893,1.5344 -1.62756,2.90234 -2.01439,4.60313 -0.63423,2.7885 -2.10634,5.17737 -6.24863,10.14008 -5.91281,7.0839 -13.80134,13.15845 -23.6352,18.20028 -11.02506,5.65256 -21.96272,8.9637 -36.6619,11.09858 -4.49615,0.65302 -6.08069,0.71084 -16.7295,0.61043 l -11.76294,-0.11095 -3.29896,-1.13731 c -3.34801,-1.15423 -12.8913,-5.79175 -15.56218,-7.5624 -1.73835,-1.15239 -7.75665,-8.22348 -10.32218,-12.12784 -2.21178,-3.36598 -5.7268,-10.64953 -6.89888,-14.29532 -2.33439,-7.26121 -3.32808,-13.18382 -3.36822,-20.0754 -0.0374,-6.42824 0.38155,-8.59477 3.84912,-19.90265 2.14309,-6.98874 3.15045,-11.17191 3.38536,-14.05822 0.0734,-0.90227 0.25878,-1.19439 0.80753,-1.27266 1.87741,-0.26781 1.24333,5.90063 -1.88601,18.34759 -1.90905,7.59328 -2.34424,10.00594 -2.563,14.20922 -0.57248,11.00015 4.05026,26.8563 10.66417,36.57851 2.29752,3.37725 7.85614,8.95319 10.84628,10.88006 5.38603,3.4708 11.14576,5.86031 17.19099,7.13192 4.20663,0.88489 13.73776,0.82503 18.06785,-0.11346 4.28172,-0.92802 9.68404,-3.0889 12.72511,-5.08995 3.21739,-2.11709 10.52215,-8.54098 13.57876,-11.94131 2.59665,-2.88869 7.31843,-9.08797 11.00291,-14.44586 1.44069,-2.09503 2.56749,-3.40983 2.92766,-3.41613 0.93857,-0.0164 0.71267,0.74962 -1.55231,5.26431 -3.96155,7.89632 -8.42401,13.99532 -15.17407,20.73902 -2.25602,2.25386 -4.10184,4.32414 -4.10184,4.60061 0,0.30779 0.31189,0.50265 0.80449,0.50265 2.04548,0 20.28944,-6.683 25.79541,-9.44918 4.3063,-2.1635 9.56182,-5.99171 12.58816,-9.16944 4.35219,-4.5699 10.22389,-12.65643 13.77904,-18.97657 1.85579,-3.29909 4.49929,-9.45835 5.24297,-12.21594 0.21699,-0.80459 0.79702,-1.83158 1.28897,-2.28217 0.49194,-0.45063 1.23196,-1.14289 1.6445,-1.53845 0.41254,-0.39551 1.06121,-1.65411 1.44147,-2.79683 0.58951,-1.77146 0.67125,-2.68525 0.55468,-6.19989 -0.0752,-2.26722 -0.3009,-5.27514 -0.50162,-6.68428 -0.36821,-2.5853 -2.22313,-9.59882 -3.43724,-12.99636 -0.36168,-1.01214 -0.87118,-3.06541 -1.13221,-4.56284 -0.88434,-5.07307 -3.83406,-13.54128 -6.66791,-19.14254 -1.56902,-3.10133 -6.48296,-11.08223 -8.68358,-14.10338 -2.42911,-3.33482 -6.92204,-8.30392 -10.3759,-11.47553 -6.30136,-5.78643 -9.89626,-8.59138 -22.80544,-17.79411 -11.37594,-8.10972 -16.36899,-11.91091 -20.91187,-15.92016 -10.84913,-9.57474 -16.73722,-12.66049 -23.43168,-12.27977 -3.28547,0.18684 -5.39126,1.04746 -8.46401,3.45915 -5.3517,4.20037 -16.21951,19.99143 -24.39117,35.44068 -12.7931,24.1865 -21.43787,45.46811 -24.5277,60.38207 -1.28415,6.19829 -1.61039,10.534 -1.63735,21.75975 -0.0253,10.53055 0.2331,14.08493 1.50799,20.74457 2.45922,12.84618 9.77544,25.4813 17.87372,30.86796 4.93405,3.28193 5.55406,4.2497 5.78634,9.03189 l 0.15845,3.26225 -7.30932,0 -7.30932,0 -2.19851,-2.25848 c -3.64221,-3.74155 -6.60318,-7.98947 -11.36961,-16.31126 -5.48012,-9.5678 -10.32206,-15.56154 -14.85192,-18.38488 -3.95891,-2.4675 -6.30516,-3.17432 -12.9273,-3.89446 -11.85264,-1.2889 -25.7327,-3.95294 -30.28039,-5.81176 -7.12738,-2.91327 -7.53601,-2.89296 -9.44398,0.46997 -2.17656,3.83631 -2.23631,3.87505 -5.87337,3.81038 -2.82125,-0.0502 -2.94202,-0.0274 -1.41214,0.26426 1.59989,0.30517 4.98177,0.1959 7.57238,-0.24472 1.20637,-0.20521 1.22313,-0.19179 2.31068,1.84867 3.14219,5.89538 11.85536,11.05027 29.99653,17.74665 2.61122,0.96389 5.89492,2.42407 7.29714,3.24489 3.51042,2.05495 7.19748,5.64991 9.74057,9.49733 1.16076,1.75606 3.56027,4.72973 5.33226,6.60815 l 3.22179,3.41526 -1.50943,0 c -1.1962,0 -1.70571,-0.19155 -2.45529,-0.9231 -0.52022,-0.50767 -1.41141,-1.30607 -1.98042,-1.77416 -0.56901,-0.46809 -1.12766,-1.22203 -1.24146,-1.67543 -0.18785,-0.74848 -1.14579,-2.19347 -3.81038,-5.74778 -2.31211,-3.08412 -7.88364,-7.11057 -12.16677,-8.79273 -3.52061,-1.38269 -5.67699,-1.86791 -5.88558,-1.32434 -0.26535,0.6915 1.38308,9.1058 2.21202,11.29111 0.48651,1.28258 1.30972,2.51437 2.45964,3.68049 2.1024,2.132 4.24325,4.65913 4.24325,5.00887 0,0.1414 -0.75282,0.25707 -1.67295,0.25707 -1.54325,0 -1.67295,-0.0623 -1.67295,-0.80375 0,-0.58222 -0.89901,-1.65572 -3.26225,-3.89536 -3.1995,-3.03216 -8.253,-7.25599 -11.01377,-9.20554 -6.63699,-4.68677 -15.75231,-11.34431 -18.42903,-13.45995 -1.79615,-1.41967 -4.16264,-3.25874 -5.25885,-4.08685 -1.09621,-0.82811 -4.66547,-3.71505 -7.93167,-6.41543 -12.32444,-10.18936 -18.23755,-14.01105 -25.53937,-16.50625 -2.33622,-0.79833 -3.03041,-0.89282 -5.45707,-0.74293 -1.5292,0.0945 -2.88429,0.27597 -3.01131,0.40335 -0.49837,0.49975 -0.16708,3.71803 0.51922,5.04401 0.73374,1.41759 4.17129,4.83693 6.87768,6.84119 0.86972,0.64409 4.61527,4.69373 8.32345,8.9992 3.70818,4.30547 8.51646,9.69581 10.68507,11.97855 2.16861,2.28271 5.49424,6.2115 7.39031,8.73059 5.12038,6.80292 7.05116,8.91806 10.07471,11.03668 l 2.73327,1.9152 -24.89295,0.0858 c -13.69112,0.0472 -24.96142,0.0174 -25.04511,-0.0663 -0.19338,-0.19335 1.94622,-4.04305 3.823,-6.87853 1.56567,-2.36545 3.94183,-9.01602 5.02372,-14.0608 0.86679,-4.04178 0.86349,-13.05249 -0.006,-15.88499 -1.0006,-3.26031 -2.22663,-5.95908 -3.1536,-6.94177 -1.33433,-1.41455 -3.99432,-2.25946 -7.11344,-2.25946 -1.46529,0 -2.66417,0.078 -2.66417,0.17339 0,0.0954 0.75508,1.67803 1.67797,3.51711 2.41328,4.80899 3.63146,8.03678 4.54217,12.03523 0.94371,4.14333 0.99349,6.3729 0.26859,12.03098 -1.00302,7.82904 -3.01755,13.74465 -4.76988,14.00667 -0.94693,0.14157 -0.92876,-0.53253 0.0955,-3.54397 1.86943,-5.49638 2.51068,-15.81229 1.38079,-22.21333 -0.83591,-4.73565 -2.85515,-9.71378 -5.54238,-13.66395 -2.11699,-3.11192 -2.61287,-3.35653 -8.45157,-4.16872 -6.03431,-0.83942 -10.02834,-2.14619 -10.52637,-3.44403 -0.24436,-0.63679 1.3715,-3.76073 4.283,-8.28027 l 1.9399,-3.0113 0.22676,-4.01508 c 0.13173,-2.33232 0.0647,-5.90819 -0.15988,-8.53205 -0.51658,-6.03495 -1.65466,-9.36515 -4.53059,-13.25714 -0.64964,-0.87916 0.37816,-1.16421 4.54336,-1.26004 2.8738,-0.0661 5.52324,-0.37542 8.62278,-1.00665 2.46088,-0.50115 4.69489,-0.82655 4.96449,-0.7231 0.36985,0.14193 0.43641,0.50625 0.27117,1.48428 -0.21332,1.26267 -0.19029,1.30134 0.89084,1.49606 3.36583,0.6062 7.80937,0.94387 10.31105,0.78355 3.88344,-0.24887 4.07191,-0.34526 3.9486,-2.01952 -0.0946,-1.28464 -0.29551,-1.52718 -3.26807,-3.94542 -2.10803,-1.71494 -4.17812,-3.84162 -6.18991,-6.35916 -3.66067,-4.58092 -5.23422,-5.69658 -8.1058,-5.74709 -1.06879,-0.0188 -5.12199,0.15182 -9.00712,0.37916 -7.60057,0.44475 -10.31044,0.97078 -12.94014,2.51188 -1.43673,0.84198 -6.28597,6.04116 -10.11722,10.84731 -0.91565,1.14865 -1.84413,2.08968 -2.0633,2.09119 -1.46103,0.01 -0.43784,-1.92135 3.80953,-7.19094 1.63159,-2.02427 3.82767,-4.74815 4.88017,-6.05306 1.2392,-1.53638 2.50655,-2.69526 3.59594,-3.28818 2.13255,-1.16068 2.68399,-2.01863 2.91172,-4.53014 0.2034,-2.24307 -0.44782,-4.5079 -1.5946,-5.54572 -0.68562,-0.62048 -0.85314,-1.33415 -0.38157,-1.6256 0.15157,-0.0937 1.16933,0.10785 2.26168,0.44782 5.08225,1.58178 13.56278,1.7135 19.69076,0.30586 1.72386,-0.39599 3.36154,-0.63277 3.63928,-0.52619 0.27774,0.10658 0.74217,0.99418 1.03205,1.97245 0.51235,1.72898 0.62359,1.84185 3.98204,4.04026 4.97105,3.25401 6.45239,3.7051 11.26593,3.43067 4.47032,-0.25486 6.64127,-0.84793 8.239,-2.25076 0.92957,-0.81618 1.14053,-1.24149 1.14053,-2.29946 0,-1.22984 -0.0923,-1.34483 -1.7566,-2.18801 -3.94196,-1.99711 -7.82706,-4.96149 -11.7943,-8.99917 -3.76227,-3.82909 -7.40886,-6.64778 -9.75702,-7.54185 -1.97623,-0.75246 -4.53846,-1.0209 -12.51064,-1.31074 -4.51819,-0.16427 -9.90864,-0.54705 -11.97878,-0.85064 -7.10896,-1.04253 -12.41949,0.19299 -15.85972,3.68984 -2.40184,2.44138 -3.95098,6.21826 -7.28492,17.761 -0.90828,3.14466 -2.41676,7.81218 -3.35217,10.37229 -5.67853,15.54142 -5.70196,15.61461 -5.90735,18.45657 -0.17152,2.37328 -0.28489,2.76037 -0.80848,2.76037 -0.40385,0 -0.54411,0.16905 -0.41639,0.50188 0.10593,0.27604 0.37913,0.50189 0.60712,0.50189 0.2683,0 0.40623,0.5016 0.39101,1.422 -0.0266,1.61064 1.50131,5.27069 2.19932,5.26829 0.25975,-0.001 0.45925,-0.45029 0.49228,-1.10896 0.0815,-1.62446 2.0128,-6.39345 3.24173,-8.0047 1.13594,-1.48931 4.25694,-3.3621 5.07792,-3.04706 0.58731,0.22537 0.63651,1.2213 0.11015,2.23017 -0.20971,0.40196 -1.33698,2.1612 -2.50504,3.90944 -2.19214,3.28096 -2.50162,4.19222 -2.98279,8.78298 -0.14398,1.3737 -0.34165,1.92389 -0.69122,1.92389 -0.36213,0 -0.40832,0.15244 -0.17744,0.58553 0.50989,0.95647 5.99361,19.12158 7.23702,23.97304 2.42151,9.44811 3.26932,17.20166 2.53147,23.15124 -0.22612,1.82335 -0.68219,3.91741 -1.01347,4.65351 -0.77554,1.72321 -4.54655,6.39241 -9.57892,11.86051 -3.88708,4.22366 -4.01557,4.32692 -5.40894,4.34676 l -1.42727,0.0203 0.0134,-44.08222 z m 145.11193,-2.47496 c 0.74621,-1.04138 2.31596,-4.85701 4.75356,-11.55449 4.11633,-11.30996 4.71219,-13.16748 4.71219,-14.68951 0,-1.06598 -0.0205,-1.07957 -1.92389,-1.27306 -1.05814,-0.10757 -4.25766,-0.35686 -7.11004,-0.55398 -2.85238,-0.19713 -6.08953,-0.50323 -7.19368,-0.68023 -4.77129,-0.76486 -10.84825,-0.9685 -18.90433,-0.63348 -6.50573,0.27055 -10.40705,0.23426 -18.90433,-0.17583 -5.88878,-0.2842 -14.01932,-0.66483 -18.06786,-0.84584 -4.04853,-0.18102 -9.8453,-0.55416 -12.88171,-0.82921 -3.0364,-0.27505 -7.10515,-0.59668 -9.04167,-0.71473 l -3.52094,-0.21464 -1.53144,2.30526 c -0.84229,1.26789 -1.69752,2.7969 -1.90052,3.39779 -0.203,0.60089 -1.03125,1.95597 -1.84056,3.0113 -0.80932,1.05533 -3.15053,4.46234 -5.2027,7.57111 -3.62791,5.49581 -4.84357,7.96124 -4.20378,8.52552 0.32981,0.29089 12.13266,1.90834 16.07947,2.20351 l 2.38875,0.17864 0.2313,-1.23293 c 0.12721,-0.67815 0.6665,-2.0951 1.19842,-3.14879 1.17242,-2.32259 1.4814,-2.41996 6.3399,-1.99824 4.88197,0.42376 9.19139,2.19611 16.39491,6.74285 3.64985,2.30369 5.87539,2.86891 13.69,3.47673 3.67693,0.28597 6.88134,0.59192 7.1209,0.67988 0.67725,0.24867 1.11223,-0.19208 2.07681,-2.10443 1.50727,-2.98826 3.10158,-3.07736 10.32936,-0.57734 4.33854,1.50071 12.89602,3.41055 18.64437,4.16106 6.94796,0.90711 6.87521,0.91614 8.26751,-1.02692 z M 285.125,555.33908 c 0,-0.76595 0.17837,-0.85655 2.42577,-1.2323 1.33418,-0.22307 3.47974,-0.82162 4.76791,-1.33009 4.9788,-1.96539 12.75254,-4.05503 17.38822,-4.67416 1.46645,-0.19583 3.19795,-0.49288 3.84779,-0.66011 0.64983,-0.16723 2.49896,-0.4078 4.10918,-0.53464 2.82397,-0.22244 2.92766,-0.20574 2.92766,0.47177 0,0.77755 -0.35238,0.89941 -3.5132,1.2149 -1.10414,0.11018 -3.06149,0.40686 -4.34966,0.65924 -1.28818,0.25238 -3.47138,0.63535 -4.85156,0.85106 -1.38018,0.21568 -3.18697,0.61695 -4.01508,0.89175 -0.82811,0.27477 -1.95735,0.57961 -2.50942,0.67744 -1.42335,0.25225 -5.7866,1.55836 -9.70311,2.90458 -1.84024,0.63251 -4.06108,1.24842 -4.9352,1.36867 -1.5262,0.20996 -1.5893,0.1858 -1.5893,-0.60811 z m -9.36852,-5.18605 c 0,-0.39779 0.47743,-0.83366 1.33836,-1.22189 0.7361,-0.33194 1.33836,-0.74011 1.33836,-0.90704 0,-0.16692 0.13793,-0.21828 0.30651,-0.11409 0.16858,0.10419 0.7332,0.0197 1.25471,-0.18741 l 0.9482,-0.37688 -0.9494,-0.33235 c -0.66153,-0.23156 -1.06226,-0.21949 -1.32163,0.0399 -0.20472,0.20473 -0.80129,0.37223 -1.32569,0.37223 -0.52441,0 -1.36005,0.2054 -1.85698,0.45641 -0.49693,0.25105 -1.84454,0.53789 -2.99469,0.63746 -2.02557,0.17536 -2.09119,0.15626 -2.09119,-0.60855 0,-0.65098 0.22029,-0.82751 1.25471,-1.00554 2.52207,-0.43406 7.66348,-1.88705 9.61946,-2.71851 2.26644,-0.96342 6.45251,-1.92065 10.71654,-2.4505 1.58287,-0.19671 3.95974,-0.78298 5.28193,-1.30283 3.8185,-1.50137 12.50035,-4.29424 15.78757,-5.07872 2.5395,-0.60603 3.5678,-0.68417 6.56299,-0.49872 3.38546,0.20961 3.70367,0.17024 6.79987,-0.84147 2.42822,-0.79344 3.34434,-0.96524 3.629,-0.68058 0.61828,0.61828 -0.63638,1.51673 -3.60826,2.58385 l -2.67672,0.96114 1.4158,0.19245 c 1.63798,0.22266 1.85101,0.36641 1.58198,1.06751 -0.25208,0.6569 -2.29248,1.17257 -5.6745,1.43412 -4.74456,0.3669 -9.82581,1.42685 -19.9081,4.15275 -3.40445,0.92042 -9.08214,2.4326 -12.61709,3.36039 -3.53495,0.92778 -7.70109,2.13649 -9.25809,2.68605 -3.32128,1.17227 -3.55365,1.19716 -3.55365,0.38083 z m 10.20499,-4.12024 c 2.02427,-0.60373 3.73068,-1.21493 3.79202,-1.35817 0.0613,-0.14323 0.71013,-0.26044 1.44175,-0.26044 0.89958,0 1.25497,-0.12176 1.09776,-0.37615 -0.40003,-0.64726 -7.23301,0.34199 -9.02329,1.30634 -0.35978,0.1938 -1.13545,0.53043 -1.72372,0.74805 -0.86258,0.31913 -0.9921,0.48328 -0.66918,0.84818 0.22022,0.24884 0.62625,0.39338 0.90229,0.32117 0.27603,-0.0722 2.1581,-0.62524 4.18237,-1.22898 z m 12.04524,-3.62615 c 0.11373,-0.18402 0.0562,-0.33459 -0.1278,-0.33459 -0.18403,0 -0.42765,0.15057 -0.54138,0.33459 -0.11373,0.18403 -0.0562,0.33459 0.1278,0.33459 0.18403,0 0.42764,-0.15056 0.54138,-0.33459 z m 5.66077,-1.29426 c 0.0987,-0.15977 0.92783,-0.38976 1.84241,-0.51109 0.91458,-0.12132 2.83767,-0.52229 4.27353,-0.89108 1.43586,-0.36877 3.51405,-0.81135 4.61819,-0.9835 6.54493,-1.02041 6.8591,-1.09221 6.8591,-1.56751 0,-0.39939 -0.61854,-0.45669 -3.59684,-0.33322 -6.03517,0.2502 -8.92871,0.96451 -13.21176,3.26152 -0.31955,0.17137 -0.95945,0.3116 -1.42201,0.3116 -0.52451,0 -0.84102,0.18888 -0.84102,0.50189 0,0.53327 1.17558,0.70136 1.4784,0.21139 z m -55.01278,8.14506 c 0,-0.65607 0.99241,-1.0207 3.59684,-1.32153 2.06306,-0.2383 2.09118,-0.23047 2.09118,0.58014 0,0.76006 -0.15419,0.83778 -2.05662,1.03659 -3.08333,0.32228 -3.6314,0.27775 -3.6314,-0.2952 z m 73.67501,-2.33384 c -0.007,-0.55207 0.0626,-0.81844 0.15424,-0.59189 0.0916,0.22652 0.0972,0.67822 0.0124,1.00377 -0.0848,0.32553 -0.15982,0.1402 -0.16664,-0.41188 z m -72.33665,-2.96396 c 0,-0.63033 0.63505,-1.11512 1.84211,-1.40628 0.55105,-0.13293 1.53588,-0.50888 2.18853,-0.83544 0.65264,-0.32656 1.74424,-0.69839 2.42577,-0.82624 1.09167,-0.2048 1.23915,-0.15327 1.23915,0.43293 0,0.53568 -0.57074,0.86435 -2.92766,1.68593 -3.92259,1.3674 -4.7679,1.53567 -4.7679,0.9491 z m 9.36851,-3.33837 c 0,-0.67002 0.28593,-0.86113 2.00249,-1.33838 1.10137,-0.3062 2.26825,-0.55732 2.59307,-0.55803 1.07886,-0.002 11.27444,-2.68661 12.67831,-3.33791 1.86494,-0.86519 6.461,-2.01424 8.05677,-2.01424 0.71278,0 2.16305,-0.22584 3.22283,-0.50188 2.78547,-0.72552 4.23635,-0.67283 4.23635,0.15386 0,0.8654 -1.33772,1.22361 -6.8591,1.83674 -3.92827,0.43622 -9.01981,1.72663 -10.04859,2.54673 -0.78228,0.62359 -11.96226,3.22606 -13.07565,3.04371 -0.20467,-0.0335 -0.80693,0.16582 -1.33836,0.44296 -1.29427,0.675 -1.46812,0.64258 -1.46812,-0.27356 z m -18.1958,-3.9863 c 0.8116,-1.58043 3.9042,-6.28539 6.58037,-10.01113 1.49146,-2.07638 2.60985,-3.30737 3.12152,-3.43579 0.88894,-0.22311 7.42192,0.17316 19.14977,1.16155 4.29651,0.3621 8.14604,0.65837 8.55451,0.65837 0.65162,0 0.8163,-0.3179 1.34322,-2.59308 1.85643,-8.01571 6.72441,-17.3379 12.17756,-23.32006 2.82965,-3.10415 3.40456,-4.53496 3.40456,-8.47302 0,-2.33931 -0.83158,-7.8337 -1.54467,-10.20586 -0.16562,-0.55095 -0.63776,-0.57852 -6.59419,-0.38507 -3.52869,0.1146 -6.97588,0.34859 -7.66042,0.51997 -0.92029,0.23041 -1.64577,0.80407 -2.78404,2.20141 -1.36665,1.67771 -2.83043,4.06689 -2.83043,4.61983 0,0.10969 0.71519,0.51496 1.5893,0.90059 2.84036,1.25309 4.11884,2.24437 4.76977,3.69827 0.56487,1.26167 0.57594,1.4912 0.12412,2.57282 -1.38651,3.31925 -5.23825,5.36617 -11.42214,6.07005 -3.85837,0.43917 -4.41243,0.75489 -7.38148,4.20613 l -2.11544,2.45901 1.11167,1.2974 c 0.61142,0.71357 2.00096,2.03006 3.08788,2.92553 3.86375,3.18321 3.91219,3.23808 4.09552,4.63944 0.37091,2.83526 -0.90833,3.96242 -5.70227,5.02438 -3.97626,0.88084 -8.33313,0.33133 -13.47554,-1.69957 -1.44585,-0.57102 -2.69928,-0.81113 -4.18237,-0.8012 -2.22419,0.0149 -7.45388,0.69344 -7.76839,1.00795 -0.10105,0.10105 0.17812,1.22985 0.62037,2.50846 1.15798,3.34782 1.84935,7.81016 1.85058,11.94419 0.001,3.35783 0.045,3.59684 0.66166,3.59684 0.40767,0 0.87438,-0.41633 1.219,-1.08741 z m -40.15528,-1.49869 c -0.11118,-0.11118 -0.19026,0.0864 -0.17574,0.43915 0.0161,0.38978 0.0953,0.46906 0.20215,0.20215 0.0967,-0.24153 0.0848,-0.53012 -0.0264,-0.6413 z m 126.56565,-9.20819 c -0.74975,-1.4114 -4.22902,-4.45341 -6.19468,-5.41616 -2.57093,-1.25921 -6.26969,-1.82153 -7.65507,-1.1638 -1.23652,0.58707 -2.0331,2.22664 -2.30278,4.73971 l -0.20644,1.9239 1.75951,0.0453 c 1.54421,0.0398 10.19501,0.39471 13.73288,0.56346 1.21472,0.0579 1.25014,0.0296 0.86658,-0.69242 z m -23.71411,-20.15904 c 0,-0.27604 -0.22585,-0.50189 -0.50188,-0.50189 -0.27604,0 -0.50189,0.22585 -0.50189,0.50189 0,0.27603 0.22585,0.50188 0.50189,0.50188 0.27603,0 0.50188,-0.22585 0.50188,-0.50188 z m -43.24574,-3.03488 c 0.96612,-1.01633 1.75418,-2.02906 1.75122,-2.25052 -0.003,-0.22144 -1.23463,-1.08018 -2.73706,-1.90829 -1.50243,-0.8281 -4.1634,-2.60153 -5.91326,-3.94094 -1.74986,-1.33941 -3.55563,-2.52918 -4.01282,-2.64392 -0.4572,-0.11475 -2.04729,0.002 -3.53354,0.26045 -1.67032,0.28995 -4.9546,0.46126 -8.60018,0.44857 l -5.89791,-0.0205 -0.20836,1.99349 c -0.1146,1.09642 -0.20836,2.49838 -0.20836,3.11547 l 0,1.12198 2.47751,0 c 1.36263,0 4.56215,-0.23295 7.11004,-0.51768 4.96452,-0.55478 6.73867,-0.4527 10.10279,0.5813 2.48399,0.76348 4.63956,2.55463 5.57746,4.63454 0.54105,1.19982 0.7213,1.34273 1.47609,1.17033 0.47288,-0.10801 1.65025,-1.02794 2.61638,-2.04427 z m 13.79419,-20.25545 c 0.58821,-1.10357 0.98584,-2.22441 0.88364,-2.49074 -0.20662,-0.53846 -2.60515,-0.64296 -6.18036,-0.26928 -1.87595,0.19608 -2.05662,0.28417 -2.05662,1.00281 0,1.03901 2.01463,3.23453 3.76081,4.09846 1.69968,0.84094 2.00117,0.64446 3.59253,-2.34125 z m -61.11923,-8.57936 c 2.31798,-2.53034 5.00516,-5.65457 5.97151,-6.94274 0.96634,-1.28817 2.671,-3.39609 3.78812,-4.68426 2.14679,-2.47549 3.28943,-4.17308 3.68409,-5.47336 0.19256,-0.63443 -0.0183,-1.06073 -1.0757,-2.17483 -0.72336,-0.76216 -2.62924,-3.00431 -4.23528,-4.98258 -1.60604,-1.97826 -3.13541,-3.59684 -3.3986,-3.59684 -0.26627,0 -1.00291,1.10505 -1.66078,2.49139 -1.78983,3.77169 -4.2703,7.25898 -7.47686,10.51168 -2.66058,2.69887 -8.46654,7.40692 -9.13421,7.40692 -0.60796,0 -0.2377,1.36889 0.65298,2.41413 0.5151,0.60448 1.93413,2.37887 3.15342,3.94307 2.63257,3.37732 4.74168,5.68803 5.19173,5.68803 0.17879,0 2.2216,-2.07027 4.53958,-4.60061 z m 54.34769,3.552 c 2.72201,-0.74846 4.45251,-0.75709 15.10388,-0.0754 3.40069,0.21767 12.35811,-0.29253 16.10036,-0.91705 2.09877,-0.35025 4.48175,-1.43758 7.27256,-3.31841 2.48946,-1.67774 3.50706,-3.19813 3.70032,-5.52866 l 0.15019,-1.81102 -6.64895,0.0138 c -7.77343,0.0161 -9.51531,-0.21529 -16.68665,-2.21678 -2.94439,-0.82177 -6.4074,-1.70461 -7.69557,-1.96185 -3.04933,-0.60895 -28.95954,-1.03563 -33.79358,-0.55651 -3.46129,0.34307 -7.33759,1.46341 -9.47863,2.73955 -2.54493,1.51686 -4.73702,4.0704 -5.20672,6.06523 l -0.21665,0.92012 8.12018,0.003 c 8.65565,0.003 12.68863,0.32107 16.52335,1.30343 2.50341,0.64132 4.00862,1.53807 7.30808,4.35389 1.09618,0.9355 2.1861,1.70092 2.42204,1.70092 0.23594,0 1.59755,-0.32132 3.02579,-0.71403 z m -41.18077,-7.84508 c 0.40183,-0.11263 1.07052,-0.86348 1.50565,-1.69063 0.48138,-0.91507 1.2981,-1.7947 2.12114,-2.28454 0.73609,-0.43809 2.16647,-1.53866 3.1786,-2.44571 1.01213,-0.90705 2.29194,-1.88191 2.84401,-2.16637 1.97975,-1.02005 5.76868,-1.94765 10.47303,-2.56397 3.33554,-0.43699 4.97433,-0.79823 5.41002,-1.19252 0.91778,-0.83058 2.84753,-4.66052 3.79773,-7.5373 0.77385,-2.34287 0.96672,-2.61424 2.90601,-4.08866 3.95977,-3.01057 5.75284,-4.72441 8.04277,-7.68737 4.21713,-5.45659 5.46358,-9.03708 5.28318,-15.17627 -0.12722,-4.3295 -0.35606,-4.82556 -1.92608,-4.17524 -0.5742,0.23784 -5.03329,4.61313 -10.26475,10.07183 -5.08724,5.30823 -9.36564,9.69533 -9.50754,9.74913 -0.14191,0.0538 -2.04311,1.7848 -4.22488,3.84666 -2.18178,2.06187 -4.94554,4.37754 -6.1417,5.14595 -4.26277,2.73838 -8.01237,6.58239 -12.3747,12.68626 -0.9864,1.38018 -2.50309,3.33753 -3.37043,4.34967 -0.86734,1.01213 -2.0741,2.73048 -2.68169,3.81856 l -1.1047,1.97831 2.65572,-0.21758 c 1.46065,-0.11967 2.98102,-0.30877 3.37861,-0.42021 z M 311.0836,458.9416 c -0.3683,-0.88147 -0.89205,-1.3835 -1.93918,-1.85875 -1.81037,-0.82166 -5.22211,-0.88458 -6.82112,-0.1258 -0.98516,0.46748 -1.13848,0.70339 -1.14167,1.75659 -0.002,0.66913 -0.0983,1.78919 -0.21395,2.48902 -0.1953,1.18191 -0.28334,1.26522 -1.23732,1.17107 l -1.02705,-0.10137 -1.256,-5.18614 c -0.6908,-2.85238 -1.51723,-7.14673 -1.8365,-9.54301 l -0.5805,-4.35687 -2.35958,0.12473 c -1.29777,0.0686 -2.46115,0.2224 -2.58528,0.34179 -0.48925,0.47054 2.69038,18.20672 3.38929,18.90562 0.16698,0.16699 3.81459,0.33262 8.10581,0.36807 6.39764,0.0529 7.98292,0.16022 8.80599,0.59638 l 1.00377,0.53193 0.0989,-1.95281 c 0.0607,-1.19778 -0.0961,-2.41972 -0.40565,-3.16045 z M 264.98752,286.79494 c 4.30607,-0.92839 5.40613,-1.50201 9.42091,-4.91249 3.98156,-3.38225 4.69454,-4.30046 5.71102,-7.35499 1.61947,-4.86651 -0.30787,-7.31751 -7.54157,-9.59057 -1.4722,-0.46261 -4.02336,-1.09257 -5.66925,-1.39991 -1.64589,-0.30733 -3.24247,-0.69255 -3.54796,-0.85604 -0.46902,-0.25101 -2.09927,-0.54472 -3.53446,-0.63678 -0.20854,-0.0134 -0.30469,-0.37512 -0.21893,-0.82373 0.11664,-0.61017 0.64131,-1.00463 2.21208,-1.6631 3.48822,-1.46228 4.65538,-1.5947 8.58368,-0.97386 1.93226,0.30538 4.19074,0.56369 5.01885,0.57403 1.43595,0.0179 1.50955,-0.0277 1.58987,-0.98497 0.0503,-0.5998 -0.28631,-1.67705 -0.83647,-2.67672 -0.75241,-1.36717 -1.39764,-1.95892 -3.53008,-3.2375 -1.43517,-0.86051 -3.76893,-1.95575 -5.18615,-2.43388 -3.52941,-1.19072 -9.58948,-1.75333 -13.9193,-1.29225 -2.86127,0.30469 -3.36193,0.45746 -4.2324,1.29142 -0.54299,0.52022 -0.98818,1.10589 -0.98931,1.30149 -0.001,0.1956 -0.26463,0.80734 -0.58554,1.35941 -0.52705,0.90671 -0.58347,2.23313 -0.58347,13.71819 0,12.3714 0.021,12.78119 0.77745,15.18953 1.20622,3.84022 2.28366,5.03228 5.35482,5.92451 2.07887,0.60395 7.6331,0.35638 11.70621,-0.52179 z m -54.33327,-3.31117 c 0.85451,-0.54191 2.41411,-1.325 3.46579,-1.74021 1.05168,-0.4152 3.11666,-1.40032 4.58886,-2.18915 2.90958,-1.55901 5.3855,-2.12782 9.36852,-2.1523 1.92771,-0.0118 3.56737,-0.20122 8.46814,-0.97804 0.0569,-0.009 0.0146,-0.16004 -0.0939,-0.3356 -0.1085,-0.17556 -0.099,-0.7106 0.021,-1.18899 0.16213,-0.64601 0.40149,-0.84366 0.93036,-0.76821 0.572,0.0816 0.70235,0.31544 0.66272,1.18899 -0.0367,0.80856 0.092,1.0861 0.50188,1.08229 1.17653,-0.0109 1.45288,-0.50276 1.20633,-2.14692 -0.18538,-1.23615 -0.40809,-1.6419 -1.0313,-1.87885 -0.96789,-0.36799 -1.04458,-1.31989 -0.12569,-1.56018 0.36804,-0.0962 0.66918,-0.39738 0.66918,-0.66918 0,-0.2718 -0.30114,-0.57294 -0.66918,-0.66918 -0.7442,-0.19462 -0.93167,-1.43531 -0.21688,-1.43531 0.4635,0 0.87966,-3.42574 0.88406,-7.27733 0.002,-1.68584 -0.0344,-1.7566 -0.90138,-1.7566 -0.70264,0 -0.81417,0.0892 -0.50189,0.40151 0.52746,0.52746 0.51618,1.60728 -0.0167,1.60146 -0.97369,-0.0106 -1.92389,-0.44078 -1.92389,-0.87093 0,-0.82289 -0.81768,-0.50244 -4.20415,1.64763 -1.82827,1.16077 -4.57055,2.77298 -6.09396,3.58269 -1.52342,0.8097 -3.22093,1.9679 -3.77225,2.57377 -0.55133,0.60586 -1.22294,1.10157 -1.49248,1.10157 -0.26954,0 -2.84202,2.29612 -5.71663,5.1025 -4.29181,4.18993 -5.42943,5.50492 -6.36091,7.35262 -0.62389,1.23757 -1.13435,2.49856 -1.13435,2.80219 0,0.7834 1.52561,0.42471 3.4887,-0.82024 z m 152.09561,0.69392 c 0,-0.14308 -0.19932,-0.55713 -0.44293,-0.92012 -0.24361,-0.36299 -0.78937,-1.71394 -1.21279,-3.00211 -0.42342,-1.28817 -1.43269,-3.29619 -2.24283,-4.46228 -0.81013,-1.16608 -1.85682,-2.87764 -2.32597,-3.80346 -0.75735,-1.49455 -6.24627,-7.24682 -7.69733,-8.06662 -0.41267,-0.23315 -0.46378,0.52524 -0.35742,5.30403 0.0683,3.06684 0.016,6.16734 -0.11615,6.89 l -0.24027,1.31391 2.38264,1.1599 c 1.31045,0.63795 3.80272,1.90472 5.53838,2.81505 2.75677,1.4459 3.20372,1.58952 3.53531,1.13605 0.50584,-0.69178 1.63887,-0.44002 1.7731,0.39398 0.19266,1.19712 0.37402,1.50181 0.89387,1.50181 0.28181,0 0.51239,-0.11706 0.51239,-0.26014 z m -22.52475,-0.94411 c 0.51904,-0.3863 1.48737,-1.74139 2.15185,-3.01131 l 1.20815,-2.30894 -0.14632,-4.34967 c -0.0805,-2.39231 -0.007,-5.78004 0.16409,-7.52827 0.30361,-3.10889 0.2899,-3.21896 -0.62463,-5.01885 -0.51427,-1.01213 -1.33229,-3.14084 -1.81781,-4.73046 -1.22603,-4.01404 -2.06251,-5.14818 -4.25822,-5.7735 -0.96582,-0.27506 -2.65942,-0.77201 -3.76357,-1.10434 -1.66013,-0.49967 -3.22347,-0.60423 -9.03393,-0.60423 -6.6579,0 -7.10071,0.0397 -8.4435,0.75713 -2.19512,1.1728 -2.6183,2.04765 -2.16627,4.47832 0.50969,2.74074 1.37236,4.39403 2.49466,4.781 0.64342,0.22185 1.79667,0.14946 3.84778,-0.24152 5.14032,-0.97983 5.50944,-0.98929 8.81966,-0.2261 3.5036,0.80779 4.64889,1.37466 4.64889,2.30103 0,0.7512 -0.63069,1.03185 -2.31881,1.03185 -1.71604,0 -8.20902,1.46806 -10.06101,2.27479 -1.90739,0.83086 -2.98595,1.99465 -3.36586,3.63184 -0.38364,1.65323 -0.37904,6.97404 0.009,9.9847 0.26385,2.04907 0.4431,2.47033 1.43989,3.38381 1.03612,0.94953 4.84643,2.48203 7.27077,2.92428 0.46006,0.0839 3.57369,0.12969 6.91917,0.1017 5.61149,-0.047 6.1558,-0.1053 7.02639,-0.75326 z m -30.17316,-1.80978 c 2.28646,-0.45088 2.71636,-1.08544 2.99266,-4.41743 0.26695,-3.2192 -0.14007,-7.69838 -1.36178,-14.98606 -0.9578,-5.71339 -1.23135,-6.45938 -2.90869,-7.93211 -2.0068,-1.76199 -5.43285,-2.44085 -12.29587,-2.43637 -6.09525,0.004 -13.56378,0.8657 -14.54246,1.67793 -0.67419,0.55953 -0.61646,2.54263 0.18481,6.34842 0.36807,1.74823 0.80954,5.44334 0.98103,8.21134 0.3951,6.37703 1.2191,11.11488 2.10267,12.08998 0.82846,0.91427 3.08987,1.46388 7.41568,1.8023 4.11569,0.32198 15.13083,0.0958 17.43195,-0.358 z m 36.63759,-4.68153 c 0,-0.18403 -0.22585,-0.33459 -0.50188,-0.33459 -0.27604,0 -0.50189,0.15056 -0.50189,0.33459 0,0.18402 0.22585,0.33459 0.50189,0.33459 0.27603,0 0.50188,-0.15057 0.50188,-0.33459 z m -0.66793,329.48739 c 0.002,-0.66864 1.21423,-2.47262 2.0633,-3.07053 2.70802,-1.90693 3.39004,-2.24249 3.66777,-1.80448 0.3671,0.57898 0.36891,1.61276 0.003,1.61276 -0.51489,0 -3.393,2.72038 -3.393,3.20705 0,0.31802 -0.38444,0.47344 -1.17107,0.47344 -0.71446,0 -1.17057,-0.16308 -1.16981,-0.41824 z m 158.28892,-0.34516 c 0.80943,-0.69407 7.49223,-6.04711 9.18206,-7.35499 l 0.76244,-0.59011 0.23746,1.72655 c 0.196,1.42501 0.14024,1.78092 -0.31926,2.03808 -0.30619,0.17135 -1.79136,1.35027 -3.30038,2.61981 l -2.74367,2.30827 -2.34213,-0.003 -2.34213,-0.003 0.86561,-0.74226 z m 12.68528,-4.95698 0,-5.72039 2.04112,-2.22612 c 1.12262,-1.22437 2.94872,-3.58122 4.058,-5.23744 l 2.01687,-3.01131 -0.17763,-3.1786 c -0.0977,-1.74823 -0.52202,-5.4056 -0.94295,-8.12749 l -0.76534,-4.94889 1.65287,-3.36463 1.65287,-3.36464 0.21934,3.12738 c 0.79622,11.35273 1.46648,14.97895 3.13526,16.9622 0.84283,1.00163 1.08256,2.19585 0.51162,2.54867 -0.17385,0.10747 -2.15138,2.61874 -4.39447,5.58056 -2.64971,3.49881 -4.23844,5.91719 -4.53541,6.90393 -0.49175,1.63397 -0.56174,5.18604 -0.15804,8.02055 l 0.25018,1.7566 -2.28215,0 -2.28214,0 0,-5.72038 z M 401.22035,600.0623 c -0.004,-0.33446 -0.29303,-1.23731 -0.64219,-2.00633 l -0.63485,-1.39829 2.20292,-0.23592 c 2.12482,-0.22752 2.22602,-0.20416 2.85489,0.65911 0.35858,0.49225 1.17502,1.25043 1.8143,1.68486 l 1.16234,0.7898 -0.94926,0.18259 c -0.52208,0.10041 -1.77736,0.2767 -2.78949,0.39177 -1.01214,0.11506 -2.10374,0.28373 -2.42578,0.37484 -0.40222,0.11379 -0.58783,-0.0248 -0.59288,-0.44243 z m 32.79716,-35.69455 c -6.12509,-1.84326 -10.53801,-5.30131 -13.97899,-10.95424 -3.94937,-6.48817 -5.52979,-13.08384 -5.52361,-23.05211 0.004,-6.58077 0.38977,-9.96347 2.61317,-22.9194 0.8211,-4.78464 1.71661,-10.39575 1.99001,-12.46915 0.6683,-5.06815 0.96827,-13.04886 0.60805,-16.17672 -0.16139,-1.40132 -0.23646,-2.71877 -0.16683,-2.92766 0.30579,-0.91738 1.38506,-0.27299 2.58612,1.54408 1.35939,2.05659 8.92438,12.70929 16.21677,22.83576 4.46298,6.19745 6.23652,9.43097 12.29575,22.41753 4.19157,8.98365 7.11544,18.06103 7.11544,22.09039 0,4.76737 -2.43741,9.71435 -7.78381,15.79806 -2.16696,2.4658 -3.16601,2.93269 -8.73837,4.08367 -3.26972,0.67541 -4.20783,0.64034 -7.2337,-0.27021 z m 9.6349,-6.265 c 2.53969,-0.85768 5.10763,-3.0554 5.92439,-5.0703 0.81237,-2.00403 1.49204,-7.15511 1.49035,-11.29499 -0.001,-3.02805 -0.12026,-3.79042 -0.86188,-5.52073 -0.47324,-1.10415 -1.65243,-4.34131 -2.62041,-7.19368 -4.06193,-11.96932 -9.24612,-21.5273 -18.23828,-33.62553 -2.49344,-3.35471 -3.24689,-4.10339 -3.67365,-3.65034 -0.15732,0.16703 -0.35718,2.18575 -0.44412,4.48606 -0.13263,3.50946 -0.32167,4.66687 -1.17495,7.19368 -0.66691,1.97489 -1.15286,4.33561 -1.41196,6.85909 -0.21728,2.11628 -0.77185,5.504 -1.23239,7.52827 -1.03971,4.57003 -1.45718,15.24287 -0.77872,19.9081 0.84763,5.82846 3.42205,12.19497 6.52681,16.14082 2.82855,3.5948 5.78148,4.91027 11.06096,4.92744 2.55064,0.008 3.86517,-0.15813 5.43385,-0.68789 z m 47.63015,-30.07472 c -6.12326,-5.49637 -11.16324,-13.66022 -18.28601,-29.61996 -3.49517,-7.83152 -5.89401,-12.73309 -8.18744,-16.72949 -1.16168,-2.02427 -2.67178,-4.67912 -3.35578,-5.89966 -1.45242,-2.59171 -5.54494,-8.49386 -8.18877,-11.80966 -3.19224,-4.00362 -2.58817,-4.21547 4.95044,-1.73615 5.87946,1.93366 14.28579,5.83802 20.25619,9.40808 7.106,4.24911 15.48535,11.55697 20.20311,17.61969 5.82885,7.49057 10.20983,15.83038 11.43276,21.76385 0.66503,3.22666 0.66561,4.49961 0.004,8.0073 -0.99469,5.27055 -3.43076,8.8787 -7.16763,10.61627 -1.49214,0.69381 -2.48031,0.88069 -5.22385,0.98793 l -3.38361,0.13226 -3.05302,-2.74046 z m 11.17421,-4.44207 c 0.68136,-0.7821 1.61575,-2.23045 2.07642,-3.21854 0.7653,-1.64148 0.82225,-2.07463 0.65975,-5.01885 -0.36774,-6.6631 -4.93442,-16.30332 -11.2823,-23.81679 -4.46515,-5.28504 -10.84902,-10.91029 -14.43727,-12.72164 -2.5002,-1.26209 -4.54801,-2.57701 -9.16594,-5.88553 -6.06852,-4.3478 -9.50811,-5.34441 -6.64736,-1.92606 3.21835,3.84565 5.09492,6.88113 8.56758,13.85863 2.69565,5.41627 4.6181,8.89402 6.28853,11.37606 1.74535,2.59336 1.92757,2.9889 2.86135,6.21121 0.45789,1.58007 1.37442,3.87789 2.03674,5.10626 3.36927,6.24885 4.04805,7.4317 5.50575,9.59439 3.16421,4.69454 7.41439,7.86287 10.54771,7.86287 1.64168,0 1.82702,-0.0882 2.98904,-1.42201 z M 302.71991,433.603 c -0.0891,-0.426 -0.25583,-1.82851 -0.3705,-3.11668 -0.11467,-1.28817 -0.4235,-3.2925 -0.68629,-4.45408 -0.2628,-1.16157 -0.47781,-2.40373 -0.47781,-2.76036 0,-0.85175 0.98064,-0.84452 2.6747,0.0197 1.51175,0.77124 1.76495,1.56574 1.81301,5.68906 0.022,1.88408 -0.1375,2.84294 -0.63992,3.84778 -0.79919,1.59838 -2.05306,2.01823 -2.31319,0.77455 z m 24.54017,-33.98635 c -0.35736,-0.25031 -0.87861,-0.89766 -1.15832,-1.43856 -0.49864,-0.96426 -0.56099,-0.98346 -3.19331,-0.98346 -3.44087,0 -4.22437,-0.41639 -6.39245,-3.39722 -1.11321,-1.53053 -2.12076,-2.53732 -2.83997,-2.83782 -1.46285,-0.61122 -1.4748,-1.56298 -0.0272,-2.16973 1.47256,-0.61724 3.5179,-0.52905 4.93521,0.2128 1.72537,0.9031 9.37244,1.12061 12.77597,0.36339 3.44581,-0.76662 6.32452,-2.21668 8.5169,-4.29015 1.65891,-1.56893 3.46677,-4.31653 3.46677,-5.26882 0,-0.44963 -9.98379,-0.46553 -12.33492,-0.0196 -2.38053,0.45147 -3.72539,0.14604 -3.72539,-0.84605 0,-0.66173 0.24882,-0.82138 1.75659,-1.12709 3.75814,-0.76197 6.63578,-1.01664 11.55933,-1.02302 5.08441,-0.007 5.12386,-0.0124 5.92827,-0.8804 0.44538,-0.48058 0.90003,-1.15813 1.01034,-1.50566 0.1103,-0.34753 0.47542,-0.63187 0.81138,-0.63187 1.5898,0 0.92826,2.76746 -1.03955,4.34883 l -1.3867,1.11439 0.19171,4.98823 c 0.1777,4.62374 0.14458,5.03535 -0.4532,5.63313 -0.3547,0.3547 -0.9611,0.64491 -1.34755,0.64491 -0.38645,0 -1.21456,0.51192 -1.84024,1.13761 -1.32736,1.32736 -1.50954,2.77175 -0.46843,3.71394 1.48836,1.34695 0.55004,2.12268 -1.63505,1.35173 l -1.43796,-0.50734 0.22954,1.66899 c 0.1946,1.41494 0.14633,1.669 -0.31714,1.669 -0.30067,0 -1.13427,-0.61769 -1.85244,-1.37264 -1.60381,-1.68595 -2.22229,-1.59156 -2.06821,0.31566 0.0618,0.76536 -0.0134,1.40527 -0.1673,1.42201 -2.42649,0.26412 -6.95857,0.0917 -7.49664,-0.28514 z m -80.47553,-6.6044 c -0.21936,-0.87402 -1.0685,-1.10989 -1.70483,-0.47355 -0.70844,0.70843 -1.90518,0.20287 -2.23239,-0.94307 -0.27566,-0.96539 -0.4031,-1.05556 -1.18223,-0.83647 -0.4803,0.13505 -1.55468,0.2453 -2.38752,0.24499 -1.37009,-6.7e-4 -1.87976,-0.26775 -5.35344,-2.80711 -4.55834,-3.33227 -6.83863,-5.44083 -7.71399,-7.13304 -0.86901,-1.67994 -0.81802,-2.23711 0.43787,-4.78391 1.2929,-2.62188 1.15204,-3.03857 -1.35642,-4.01241 -1.12737,-0.43767 -1.72499,-0.86492 -1.72743,-1.23496 -0.002,-0.31119 0.11649,-0.64008 0.2634,-0.73088 0.46106,-0.28495 9.33961,1.36501 15.7932,2.93496 3.40445,0.8282 6.82982,1.6081 7.61192,1.73312 1.23061,0.19671 1.42201,0.33925 1.42201,1.059 0,0.80138 -0.058,0.82333 -1.58931,0.60205 -0.87411,-0.12631 -3.44615,-0.59516 -5.71564,-1.04188 -4.61795,-0.90899 -10.36692,-1.65409 -10.64177,-1.37925 -0.38836,0.38836 1.79502,3.52388 3.92947,5.64306 2.38228,2.36524 5.31243,4.02093 9.16569,5.1791 2.9975,0.90095 9.52529,0.82292 12.90306,-0.15425 3.82298,-1.10596 8.3434,-0.9242 8.3434,0.33548 0,0.20619 -0.3896,0.88568 -0.86579,1.50999 -0.80985,1.06177 -0.95768,1.12132 -2.2883,0.92178 -1.7061,-0.25584 -2.53394,0.36487 -2.53394,1.89996 0,1.56328 -0.49948,2.14963 -2.53484,2.97572 -1.60891,0.65301 -2.04667,0.70946 -2.95489,0.38105 -0.5864,-0.21205 -1.7499,-0.47925 -2.58556,-0.59379 -1.36424,-0.18699 -1.58963,-0.11896 -2.20729,0.66626 -0.89313,1.13544 -2.01434,1.15403 -2.29444,0.038 z m 61.43437,-12.19904 c -0.193,-0.36062 -0.44081,-1.31159 -0.55069,-2.11324 -0.1983,-1.44675 -0.184,-1.47199 1.92844,-3.40437 7.50555,-6.8658 19.14887,-11.22537 29.98011,-11.22537 3.61151,0 5.80561,0.37307 9.03665,1.53653 1.85279,0.66716 2.42578,1.02354 2.42578,1.50872 0,0.34938 -0.11292,0.639 -0.25094,0.64361 -0.13802,0.005 -2.81056,0.06 -5.93897,0.12318 -3.52516,0.0711 -6.73084,0.32603 -8.43046,0.67029 -7.97022,1.61441 -18.46158,6.37617 -25.28321,11.47542 -2.1849,1.63324 -2.42787,1.69864 -2.91671,0.78523 z M 267.22296,373.179 c -1.28898,-0.68525 -3.8486,-2.39852 -5.68803,-3.80727 -8.22437,-6.29872 -16.96667,-9.32004 -26.93301,-9.30798 -5.01967,0.006 -7.9798,0.43075 -12.95588,1.85871 -0.58231,0.16711 -0.82817,0.0272 -1.13488,-0.64599 -0.66681,-1.46348 0.25889,-2.38896 3.37374,-3.37294 9.18427,-2.90131 17.19874,-2.94975 26.77734,-0.16184 6.26032,1.8221 13.61271,5.89169 18.20899,10.07879 1.95753,1.78326 1.98323,1.83041 2.13411,3.9163 0.1129,1.56083 0.0325,2.18746 -0.30844,2.4034 -0.7056,0.44692 -0.95511,0.37788 -3.47394,-0.96118 z"
       style="fill:#000000" />
  </g>
</svg>
