<?xml version="1.0" encoding="UTF-8" standalone="no"?>
<!-- Created with Inkscape (http://www.inkscape.org/) -->

<svg
   xmlns:dc="http://purl.org/dc/elements/1.1/"
   xmlns:cc="http://creativecommons.org/ns#"
   xmlns:rdf="http://www.w3.org/1999/02/22-rdf-syntax-ns#"
   xmlns:svg="http://www.w3.org/2000/svg"
   xmlns="http://www.w3.org/2000/svg"
   xmlns:sodipodi="http://sodipodi.sourceforge.net/DTD/sodipodi-0.dtd"
   xmlns:inkscape="http://www.inkscape.org/namespaces/inkscape"
   id="svg3030"
   version="1.1"
   inkscape:version="0.48.5 r10040"
   width="600"
   height="400"
   xml:space="preserve"
   sodipodi:docname="tor-flag.svg"><metadata
     id="metadata3036"><rdf:RDF><cc:Work
         rdf:about=""><dc:format>image/svg+xml</dc:format><dc:type
           rdf:resource="http://purl.org/dc/dcmitype/StillImage" /><dc:title /></cc:Work></rdf:RDF></metadata><defs
     id="defs3034"><clipPath
       clipPathUnits="userSpaceOnUse"
       id="clipPath3044"><path
         d="M 0,0 720,0 720,540 0,540 0,0 z"
         clip-rule="evenodd"
         id="path3046"
         inkscape:connector-curvature="0" /></clipPath><clipPath
       clipPathUnits="userSpaceOnUse"
       id="clipPath3056"><path
         d="m 0,8 730.4,0 0,524.6 L 0,532.6 0,8 z"
         clip-rule="evenodd"
         id="path3058"
         inkscape:connector-curvature="0" /></clipPath><clipPath
       clipPathUnits="userSpaceOnUse"
       id="clipPath3068"><path
         d="M 0,0 720,0 720,540 0,540 0,0 z"
         clip-rule="evenodd"
         id="path3070"
         inkscape:connector-curvature="0" /></clipPath><clipPath
       clipPathUnits="userSpaceOnUse"
       id="clipPath3076"><path
         d="m 630.7,7.7 46.7,0 0,40.1 -46.7,0 0,-40.1 z"
         clip-rule="evenodd"
         id="path3078"
         inkscape:connector-curvature="0" /></clipPath><clipPath
       clipPathUnits="userSpaceOnUse"
       id="clipPath3088"><path
         d="M 0,0 720,0 720,540 0,540 0,0 z"
         clip-rule="evenodd"
         id="path3090"
         inkscape:connector-curvature="0" /></clipPath></defs><sodipodi:namedview
     pagecolor="#ffffff"
     bordercolor="#666666"
     borderopacity="1"
     objecttolerance="10"
     gridtolerance="10"
     guidetolerance="10"
     inkscape:pageopacity="0"
     inkscape:pageshadow="2"
     inkscape:window-width="1575"
     inkscape:window-height="852"
     id="namedview3032"
     showgrid="false"
     fit-margin-top="0"
     fit-margin-left="0"
     fit-margin-right="0"
     fit-margin-bottom="0"
     inkscape:zoom="0.69925926"
     inkscape:cx="275.22585"
     inkscape:cy="212.26999"
     inkscape:window-x="25"
     inkscape:window-y="25"
     inkscape:window-maximized="1"
     inkscape:current-layer="g3038" /><g
     id="g3038"
     inkscape:groupmode="layer"
     inkscape:label="2013-03-13-SXSW-Presentation-Loop"
     transform="matrix(1.25,0,0,-1.25,-139.78938,456.44153)"><rect
       style="fill:#000000;fill-opacity:1;stroke:none"
       id="rect3870"
       width="480"
       height="320"
       x="111.8315"
       y="-365.1532"
       transform="scale(1,-1)" /><path
       style="fill:#caff2a;fill-opacity:1"
       d="m 369.4678,99.773587 c -3.19139,-0.54788 -6.42145,-0.87965 -9.65242,-1.09399 -2.89899,-0.19232 -5.8091,-0.18952 -8.7144,-0.17106 -3.0371,0.0193 -6.08229,0.0166 -9.10671,0.29454 -3.46403,0.3183 -6.91043,0.86583 -10.31722,1.569113 -2.59673,0.53606 -5.16393,1.2252 -7.69478,2.01588 -2.53131,0.79082 -5.07754,1.59034 -7.4752,2.72355 -2.71665,1.28398 -5.25571,2.9264 -7.76106,4.58532 -1.90075,1.25858 -3.72099,2.63908 -5.5014,4.06281 -10.27255,8.21458 -19.84537,23.05661 -22.26995,37.93757 -0.78237,4.80181 -0.77759,18.20238 0.008,22.80682 2.01754,11.823 7.09891,21.62118 16.45435,31.72815 4.93605,5.33258 9.75205,9.13582 24.20465,19.1146 6.21678,4.29236 11.89153,8.52771 12.61058,9.41191 2.20761,2.71464 3.16633,5.59419 3.41248,10.24962 0.27432,5.18796 -0.59339,9.33642 -3.26881,15.62785 -2.4456,5.75102 -2.44066,5.72716 -1.33447,6.4322 0.85246,0.54334 1.56113,0.18927 6.55585,-3.27544 3.08004,-2.13654 5.70951,-3.88463 5.84329,-3.88463 0.13375,0 0.37072,0.81885 0.52659,1.81968 1.43744,9.22992 4.21011,19.50715 7.56031,28.02328 1.99098,5.06097 8.18176,18.31966 8.43266,18.06007 0.0646,-0.0669 -1.09882,-5.08579 -2.58544,-11.15315 -1.48661,-6.06735 -2.64208,-11.03156 -2.56771,-11.03156 0.0744,0 0.7017,1.03723 1.39406,2.30495 6.87821,12.59411 18.20819,25.1548 32.31265,35.82259 2.12075,1.60402 1.9096,1.23732 -2.11594,-3.67468 -8.92623,-10.89186 -17.71411,-23.85624 -21.05133,-31.0561 l -1.01213,-2.18363 1.26879,1.69839 c 0.69785,0.9341 3.50021,3.99524 6.22748,6.80251 5.33197,5.48842 12.5872,10.8659 18.79312,13.92923 3.20091,1.58001 12.10665,5.47183 12.52133,5.47183 0.0947,0 -3.87442,-4.09431 -8.82051,-9.09846 -14.97525,-15.15106 -29.12813,-32.71096 -38.08693,-47.2556 l -1.68387,-2.73377 1.37277,-0.28409 c 0.75502,-0.15624 2.75068,-0.43015 4.43482,-0.60867 1.68412,-0.17854 3.05781,-0.45823 3.05262,-0.62154 -0.005,-0.16331 -0.19919,-1.65432 -0.43112,-3.31335 -1.29268,-9.2468 4.33996,-18.26229 15.53583,-24.86633 7.33318,-4.32557 13.99253,-8.80003 18.46057,-12.40377 23.85283,-19.23869 31.19979,-53.68653 17.22119,-80.74533 -4.76329,-9.22044 -12.87319,-17.67444 -21.74393,-23.692 -3.5697,-2.42154 -5.97133,-3.30889 -9.1011,-4.65712 -2.66558,-1.14827 -5.42092,-2.09528 -8.20716,-2.90812 -2.52906,-0.73781 -5.10389,-1.33432 -7.7004,-1.780073 z m -5.43152,3.368033 c 0,0.90541 -1.04395,1.09744 -1.78693,0.32867 -0.69929,-0.72355 -0.65888,-0.78529 0.51399,-0.78529 0.70012,0 1.27294,0.20548 1.27294,0.45662 z m 2.81386,0.42929 c 0,0.22036 -0.48687,0.87394 -1.08193,1.45237 -0.83097,0.80775 -1.21022,0.91894 -1.63502,0.47941 -0.4248,-0.43954 -0.37454,-0.77642 0.21667,-1.45237 0.77757,-0.88901 2.50028,-1.21933 2.50028,-0.47941 z m -29.82987,2.7332 c -15.10482,7.62335 -23.22578,19.88008 -23.96616,36.17151 -0.29961,6.59242 0.21785,9.69352 2.39836,14.373 3.3144,7.11287 8.82487,12.93521 16.41378,17.34272 6.91179,4.01426 10.42699,8.11474 13.53605,15.7898 0.91552,2.26006 1.21152,2.70317 1.00529,1.50487 -0.16075,-0.93411 -0.92964,-3.29888 -1.70863,-5.25507 -1.89852,-4.76758 -5.27152,-8.45923 -11.85881,-12.97913 -12.27617,-8.42335 -19.51023,-20.77926 -18.01862,-30.77619 1.41937,-9.51285 6.72923,-19.68204 14.46987,-27.71202 3.12397,-3.24072 4.81542,-4.56695 7.54415,-5.91529 3.41153,-1.6857 11.49125,-4.38361 12.29642,-4.10591 0.21875,0.0754 -0.66819,0.96057 -1.97097,1.96694 -2.54102,1.96287 -4.60536,4.60689 -6.32956,8.10695 -1.44398,2.9312 -3.9547,10.35449 -4.4981,13.29924 -0.60416,3.27409 0.25054,12.04991 1.60082,16.43669 1.27365,4.13783 2.49251,6.20501 6.35762,10.78257 1.57746,1.8682 3.28848,4.27021 3.80228,5.33776 0.5138,1.06755 0.93434,1.66105 0.93454,1.31886 9.5e-4,-1.28892 -1.53599,-4.33813 -4.26146,-8.4555 -5.29762,-8.00313 -7.31811,-14.3135 -6.82408,-21.31293 0.52081,-7.37875 6.18685,-20.31127 10.19155,-23.26183 l 1.35798,-1.00051 -0.0156,74.63848 -0.0156,74.63847 -6.17355,2.5301 c -3.39545,1.39154 -6.23023,2.47144 -6.29951,2.39975 -0.0693,-0.0717 0.72113,-2.16342 1.75649,-4.64828 2.45385,-5.88924 3.24936,-9.17186 3.24936,-13.40819 0,-4.25957 -0.85746,-7.33248 -2.96056,-10.60989 -3.20842,-4.99992 -6.90198,-8.22042 -16.70897,-14.56905 -6.44829,-4.17433 -18.85319,-14.44005 -23.26669,-19.25444 -6.06835,-6.61954 -9.681,-13.31847 -11.85121,-21.97569 -1.13985,-4.54698 -1.22778,-5.64589 -1.22689,-15.33097 9.3e-4,-10.01083 0.0534,-10.60958 1.29539,-14.80017 5.46051,-18.42306 19.59408,-33.67546 37.34421,-40.30048 4.17516,-1.55832 4.56581,-1.48861 1.48977,0.26585 -3.62872,2.06969 -6.20708,4.39572 -9.86295,8.89775 -9.14744,11.26464 -15.99429,25.26664 -18.14191,37.10071 -0.90633,4.99416 -0.70682,7.81283 0.90454,12.77957 4.7122,14.52448 12.60799,23.58047 31.04327,35.60477 3.39851,2.21665 6.81619,4.8725 7.96676,6.19089 2.2119,2.53453 4.178,6.97163 6.35899,14.35087 1.69664,5.74052 1.88231,6.19241 1.52882,3.7208 -0.63528,-4.44169 -2.95853,-12.85386 -4.32153,-15.64765 -1.9795,-4.05743 -3.29402,-5.29597 -12.47802,-11.75663 -9.34582,-6.57451 -14.10711,-10.46917 -17.51399,-14.3262 -6.78097,-7.67692 -11.81322,-18.82263 -11.80152,-26.13861 0.007,-4.47582 1.73161,-11.61867 4.22542,-17.50228 5.35559,-12.63531 16.98101,-28.70271 23.27935,-32.17417 2.55443,-1.40793 12.65577,-4.92084 14.22874,-4.94828 0.38691,-0.007 -1.64037,1.17064 -4.50506,2.61644 z m 32.77728,-2.16336 c 0.28919,0 -0.29969,0.87471 -1.30861,1.94381 -1.59609,1.69124 -1.92208,1.85306 -2.50931,1.24545 -0.58723,-0.60761 -0.49836,-0.89219 0.68402,-2.19049 0.74742,-0.82068 1.64,-1.38114 1.98352,-1.24546 0.34352,0.13569 0.86119,0.24669 1.15038,0.24669 z m 2.68033,0.86947 c 0,0.21133 -0.94881,1.34772 -2.10846,2.52532 -1.64538,1.67086 -2.23263,2.01261 -2.67387,1.55606 -0.44124,-0.45653 -0.16326,-1.01116 1.26569,-2.52532 1.64229,-1.74023 3.51664,-2.56959 3.51664,-1.55606 z m -17.98017,3.13289 c 6.17159,6.9277 9.53857,20.45728 9.53857,38.32888 0,5.49455 -0.20521,7.32999 -1.37202,12.27173 -1.99818,8.46284 -2.6162,10.11124 -5.93362,15.82644 -3.70463,6.3823 -4.43912,9.10928 -4.35491,16.16862 l 0.0639,5.35713 0.37553,-4.02184 c 0.59387,-6.36004 1.26954,-8.91391 3.31059,-12.51313 4.71054,-8.30666 7.65988,-16.05267 9.31834,-24.4733 2.35889,-11.9769 0.0677,-31.7473 -4.84861,-41.83757 -2.31068,-4.74251 -2.14969,-5.19003 0.34095,-0.94773 3.52517,6.00442 5.2587,12.02494 7.5254,26.13566 1.56573,9.74712 2.2939,18.14294 1.92839,22.23455 -1.23458,13.82008 -4.56174,24.82983 -11.62951,38.48267 -4.08639,7.89368 -5.21083,11.4918 -5.96375,19.08323 -0.76264,7.68971 -0.47935,9.08793 0.42956,2.12003 1.14115,-8.74848 1.42904,-9.62395 6.18238,-18.79989 8.96264,-17.30174 11.01506,-23.3871 12.38189,-36.71192 1.11955,-10.91427 0.79913,-18.15157 -1.25882,-28.43316 -1.32523,-6.62098 -4.42773,-17.84959 -5.57453,-20.17552 -1.42734,-2.8949 -0.44977,-2.27115 1.60026,1.02106 2.59758,4.17151 3.83327,7.6548 5.16262,14.55266 5.70468,29.60136 4.02503,60.22352 -4.24057,77.31067 -1.18196,2.44341 -3.67788,7.06294 -5.54651,10.2656 -4.06491,6.96691 -5.25671,9.34405 -6.17496,12.3164 -0.77115,2.49624 -1.40501,14.04461 -0.68233,12.43142 0.45558,-1.01693 7.0844,-7.9666 7.0844,-7.42731 0,1.45782 -2.23453,4.98172 -4.62844,7.29912 -1.58136,1.53082 -2.8752,3.05252 -2.8752,3.38157 0,0.32904 1.27117,-0.70331 2.82482,-2.29409 2.81258,-2.87981 2.82349,-2.88544 2.51662,-1.29786 -0.20467,1.05889 -1.19098,2.47225 -2.93623,4.20758 -1.44542,1.4372 -2.50317,2.74229 -2.35056,2.90018 0.15259,0.15789 1.191,-0.68828 2.30756,-1.8804 1.11657,-1.19212 2.20257,-2.05722 2.41334,-1.92243 0.92895,0.59404 0.16603,2.09841 -2.50647,4.94234 -2.85728,3.04055 -4.84568,4.46521 -6.23211,4.46521 -0.65318,0 -0.72675,-7.51535 -0.72675,-74.24347 0,-40.8339 0.17777,-74.24347 0.39506,-74.24347 0.50075,0 2.66082,7.28458 3.6692,12.37391 0.56462,2.84969 0.78124,6.72089 0.81458,14.55755 0.0448,10.51854 0.0192,10.81009 -1.73515,19.82731 -0.97931,5.03348 -1.71795,9.34066 -1.64141,9.5715 0.0765,0.23083 1.26316,-3.65309 2.63698,-8.63094 3.39673,-12.30771 4.11093,-18.06763 3.38738,-27.31877 -0.96949,-12.39575 -1.92895,-16.42012 -4.91683,-20.62318 -0.56917,-0.80067 -1.20365,-1.7505 -1.40995,-2.11074 -0.73733,-1.28748 1.38309,0.28726 3.33091,2.4737 z m -2.56344,120.46465 c 0.01,0.80066 0.11466,1.06945 0.23357,0.59732 0.11891,-0.47214 0.11109,-1.12722 -0.0174,-1.45575 -0.12847,-0.32853 -0.22575,0.0578 -0.21619,0.85843 z m 23.35748,-122.63208 c 0,0.44266 -5.28224,5.92914 -5.70841,5.92914 -0.15837,0 -0.41858,-0.35221 -0.57824,-0.78269 -0.36746,-0.99084 4.03433,-5.52557 5.3636,-5.52557 0.50767,0 0.92305,0.17061 0.92305,0.37912 z m -0.5138,4.76271 c -3.06046,3.18793 -3.52235,3.50647 -4.14709,2.86005 -0.62474,-0.64643 -0.34329,-1.10255 2.52696,-4.09533 2.77957,-2.89824 3.35789,-3.29707 4.14708,-2.86005 0.84098,0.46569 0.63126,0.80558 -2.52695,4.09533 z m 5.67255,-2.78268 c 0,0.36416 -7.87289,8.80163 -8.21269,8.80163 -0.0708,0 -0.2652,-0.36842 -0.43219,-0.81871 -0.21961,-0.59218 0.70423,-1.8677 3.33892,-4.60989 3.2042,-3.33495 5.30596,-4.67106 5.30596,-3.37303 z m 2.11463,0.86381 c 0.61694,0.24495 -0.24397,1.37912 -4.0324,5.3124 -2.64923,2.75053 -4.98983,4.8903 -5.20133,4.75506 -1.00544,-0.64296 -0.0576,-2.20765 3.70923,-6.12336 4.28425,-4.45354 4.26896,-4.44262 5.5245,-3.9441 z m 2.4859,1.07695 c 0.4437,0.29116 -0.9136,1.96639 -4.88913,6.03436 -5.08801,5.20632 -6.27708,6.07137 -6.27708,4.56649 0,-0.54714 9.81152,-11.02658 10.30951,-11.01132 0.13337,0.004 0.51889,0.1888 0.8567,0.41047 z m 2.61575,1.43457 c 0.13033,0.21819 -2.5917,3.31749 -6.04895,6.88735 -5.13083,5.29793 -6.34499,6.33139 -6.60733,5.62397 -0.24736,-0.66697 1.01617,-2.25403 5.48337,-6.88736 5.4803,-5.68412 6.60858,-6.56876 7.17291,-5.62396 z m 2.16329,1.05351 c 0.56336,0.37228 -0.69643,1.91714 -6.32534,7.75659 -3.86584,4.01046 -7.18973,7.29173 -7.3864,7.29173 -0.19668,0 -0.3576,-0.4885 -0.3576,-1.08554 0,-0.74707 2.00862,-3.16782 6.44216,-7.76401 3.54319,-3.67318 6.55051,-6.67515 6.68294,-6.67106 0.13242,0.004 0.55733,0.21662 0.94424,0.47229 z m 2.21373,1.36714 c 0.38572,0.25357 -2.00053,3.0349 -7.31904,8.53082 -6.41574,6.62976 -7.9516,7.9921 -8.2136,7.28568 -0.25012,-0.67446 1.33401,-2.58513 7.07906,-8.53826 4.07071,-4.21814 7.50929,-7.666 7.64129,-7.66191 0.13199,0.004 0.49752,0.17673 0.81229,0.38367 z m 2.27394,1.60408 c 0.30536,0.51125 -16.00846,17.90012 -16.79345,17.90012 -0.19615,0 -0.35663,-0.48897 -0.35663,-1.08661 0,-0.75811 2.37321,-3.54536 7.85021,-9.21978 4.31761,-4.47325 8.10389,-8.13316 8.41393,-8.13316 0.31004,0 0.70872,0.24274 0.88594,0.53943 z m 2.07405,1.38877 c 0.55486,0.36296 -1.23809,2.46492 -8.67169,10.16622 -8.42396,8.72733 -9.40913,9.60247 -9.74672,8.65821 -0.32571,-0.91101 0.79341,-2.2612 8.43257,-10.17365 4.84446,-5.01777 8.91572,-9.11989 9.04723,-9.1158 0.13152,0.004 0.55389,0.21333 0.93861,0.46502 z m -7.573,12.46266 c -8.07368,8.36061 -10.06332,10.18889 -10.40355,9.55984 -0.61793,-1.14248 18.80468,-21.25574 19.74561,-20.44775 0.51455,0.44186 -1.32587,2.5868 -9.34206,10.88791 z m 11.59606,-8.99825 c 0.18905,0.31652 -4.11919,5.14006 -10.40709,11.65183 -9.37291,9.70663 -10.78173,10.99177 -11.14114,10.16315 -0.34989,-0.80666 1.1235,-2.54703 9.84854,-11.63314 5.64299,-5.87652 10.51133,-10.69298 10.81852,-10.70326 0.30721,-0.0102 0.70373,0.22437 0.88117,0.52142 z m -9.18442,14.26688 c -6.31191,6.53502 -11.63611,11.88185 -11.83154,11.88185 -0.19542,0 -0.35531,-0.48965 -0.35531,-1.08809 0,-0.77303 3.22236,-4.42446 11.12802,-12.60978 9.89185,-10.24174 11.20617,-11.44081 11.83153,-10.79374 0.62536,0.64705 -0.57137,2.04783 -10.7727,12.60976 z m 0.85447,2.56116 c -6.75918,6.9946 -12.35309,12.71745 -12.43089,12.71745 -0.0778,0 -0.14146,-0.48974 -0.14146,-1.08832 0,-0.77513 3.40469,-4.61317 11.8316,-13.33753 9.60284,-9.94179 11.94449,-12.13241 12.43089,-11.62913 0.4864,0.50326 -1.71572,3.01571 -11.69014,13.33753 z m 13.48894,-11.00463 c 0.30526,0.51107 -24.91665,27.11884 -25.70635,27.11884 -1.58907,0 1.18749,-3.36203 12.15014,-14.71221 6.87779,-7.12091 12.66896,-12.94712 12.86923,-12.94712 0.20026,0 0.50941,0.24322 0.68698,0.54049 z m 1.45658,2.1763 c 0.20724,0.55876 -3.50198,4.69871 -13.26031,14.80016 -7.45141,7.71342 -13.70768,14.0244 -13.90279,14.0244 -0.19513,0 -0.35477,-0.48248 -0.35477,-1.07219 0,-0.75651 3.89734,-5.11387 13.23766,-14.80016 7.2807,-7.5504 13.40749,-13.728 13.61508,-13.728 0.20758,0 0.5069,0.34911 0.66513,0.77579 z m -12.31652,17.45899 c -7.85159,8.1123 -14.43114,14.76403 -14.62124,14.78161 -0.19008,0.0176 -0.41858,-0.33248 -0.50775,-0.77793 -0.10647,-0.53185 4.72341,-5.87497 14.06863,-15.56359 12.22051,-12.66959 14.30882,-14.64323 14.78337,-13.97172 0.47086,0.66628 -1.55937,2.9641 -13.72301,15.53163 z m 15.17369,-12.8568 c 0.0693,0.37822 -6.73678,7.78321 -15.12455,16.45554 -12.56675,12.99308 -15.25049,15.55306 -15.25049,14.54714 0,-0.95147 3.23281,-4.59822 14.65557,-16.5322 8.06056,-8.42129 14.86661,-15.27696 15.12454,-15.23479 0.25794,0.0421 0.52565,0.38609 0.59493,0.76431 z m 1.4069,2.42626 c 0.0692,0.37821 -7.05337,8.11081 -15.82802,17.18353 -14.47745,14.96926 -15.95392,16.36152 -15.95392,15.04401 0,-1.25928 2.03725,-3.55968 15.35904,-17.34285 8.44746,-8.74005 15.57007,-15.81931 15.828,-15.73167 0.25795,0.0877 0.52564,0.46876 0.5949,0.84698 z m -15.26348,20.41995 c -15.16242,15.65645 -16.98743,17.38971 -16.98743,16.13332 0,-1.20271 2.37103,-3.86168 16.28735,-18.26531 14.44256,-14.94829 16.36666,-16.77563 16.98744,-16.13331 0.62077,0.64232 -1.22402,2.71114 -16.28736,18.2653 z m 0.187,3.25685 c -14.30139,14.79765 -17.64341,18.02888 -17.64341,17.05853 0,-1.77404 34.24828,-37.23433 34.86334,-36.09712 0.33814,0.62518 -3.13183,4.46163 -17.21993,19.03859 z m 18.35921,-15.91277 c 0.0692,0.37822 -8.10862,9.20277 -18.17291,19.61013 -16.5469,17.11097 -18.2987,18.78368 -18.2987,17.47272 0,-1.26043 2.31192,-3.84165 17.70393,-19.76611 9.73716,-10.07398 17.91496,-18.24615 18.17291,-18.16038 0.25793,0.0858 0.52557,0.46541 0.59477,0.84364 z m -18.14177,23.41107 c -17.10818,17.65089 -19.32658,19.78083 -19.03954,18.28033 0.27044,-1.41365 3.44302,-4.93273 18.92469,-20.99164 16.71667,-17.33993 18.64432,-19.19073 19.03955,-18.28033 0.38991,0.89814 -1.75464,3.27693 -18.9247,20.99164 z m 19.65739,-17.72829 c 0,0.50052 -8.38037,9.52315 -19.71855,21.22975 -10.8452,11.19759 -19.81441,20.45025 -19.93157,20.56146 -0.11716,0.1112 -0.21301,-0.31948 -0.21301,-0.95706 0,-0.87979 4.71805,-6.04612 19.57231,-21.43194 10.76477,-11.14998 19.73398,-20.27269 19.93157,-20.27269 0.19759,0 0.35925,0.39172 0.35925,0.87048 z m 0.67464,2.86614 c 0.23256,0.62706 -4.73124,6.03809 -20.68159,22.54497 -11.54318,11.94594 -21.04261,21.66295 -21.10985,21.59339 -0.0673,-0.0696 0.0383,-0.77062 0.23432,-1.55786 0.24812,-0.99605 6.48342,-7.79705 20.50228,-22.36233 11.08015,-11.51202 20.28142,-20.95622 20.44727,-20.98712 0.16586,-0.0309 0.43926,0.31513 0.60757,0.76895 z m -20.93592,26.69023 c -11.93966,12.35611 -21.85662,22.46564 -22.0377,22.46564 -0.18107,0 -0.10385,-0.70968 0.17161,-1.57706 0.34626,-1.09029 7.03118,-8.35258 21.65777,-23.52834 18.94427,-19.65555 21.19665,-21.84013 21.53684,-20.88857 0.3352,0.93759 -2.1759,3.70767 -21.32852,23.52833 z m -1.14592,4.65834 c -12.57373,12.98059 -22.93321,23.52669 -23.02107,23.43578 -0.74963,-0.77564 3.94209,-6.04178 23.28794,-26.13906 18.75391,-19.48237 22.33524,-22.9975 22.45363,-22.03863 0.11552,0.93585 -3.96721,5.38183 -22.7205,24.74191 z m -1.64606,5.50928 c -13.49956,13.9699 -24.71807,25.39981 -24.93001,25.39981 -0.21193,0 0.0211,-0.6005 0.51768,-1.33443 0.49667,-0.73395 0.99399,-1.63259 1.10516,-1.99697 0.11118,-0.36438 10.85156,-11.66409 23.86752,-25.11044 19.13521,-19.76797 23.69588,-24.24787 23.82484,-23.40284 0.12588,0.82494 -5.01045,6.3951 -24.38519,26.44487 z m -3.03339,7.02065 c -15.16392,15.6918 -27.64478,28.45396 -27.73524,28.36037 -0.0904,-0.0936 0.6102,-1.44962 1.557,-3.01337 1.15008,-1.89951 10.30407,-11.74467 27.5794,-29.6618 23.27235,-24.13695 25.87352,-26.68848 26.01378,-25.51717 0.13747,1.14804 -3.09378,4.66417 -27.41494,29.83197 z m 27.12175,-25.4406 c -0.17088,0.92492 -8.88395,10.24418 -29.71507,31.78242 -16.21032,16.76058 -29.4733,30.2664 -29.4733,30.01292 0,-0.25347 0.24738,-1.07164 0.54974,-1.81814 0.49822,-1.23003 57.91452,-61.28582 58.59228,-61.28582 0.15846,0 0.17932,0.58888 0.0463,1.30862 z m -0.56612,4.14165 c 0,0.7856 -8.26818,9.64188 -30.10984,32.25154 -16.5604,17.14271 -30.1784,31.0976 -30.2622,31.0109 -0.82587,-0.85454 4.55488,-6.79261 30.49477,-33.6533 16.30201,-16.88068 29.69339,-30.69215 29.75864,-30.69215 0.0652,0 0.11863,0.48735 0.11863,1.08301 z m -0.93795,4.02771 c 0,1.69721 -5.12474,7.31759 -30.9579,33.95203 -25.87793,26.68058 -29.60884,30.3547 -29.31856,28.87245 0.2791,-1.42524 5.09622,-6.63379 29.95279,-32.38674 16.29111,-16.8786 29.77848,-30.69008 29.97193,-30.69216 0.19345,-0.002 0.35174,0.11241 0.35174,0.25442 z m -2.75605,7.8335 c -1.29713,2.57492 -31.49433,33.56074 -34.85691,35.76723 -1.47076,0.96508 -2.84157,1.7547 -3.04625,1.7547 -0.20467,0 8.38483,-9.06281 19.0878,-20.13958 10.70296,-11.07677 19.52527,-19.93679 19.60512,-19.68893 0.0799,0.24786 -0.27554,1.28581 -0.78976,2.30658 z m -3.46149,7.03217 c -1.70153,2.74116 -17.10389,18.81418 -20.27973,21.16278 -4.90257,3.62553 -3.79147,2.24405 8.4205,-10.46944 7.21066,-7.50681 13.19022,-13.56603 13.28792,-13.46493 0.0977,0.10109 -0.54522,1.3483 -1.42869,2.77159 z m -49.39664,58.70177 c -0.22016,0.3686 -2.95658,1.87359 -3.40663,1.87359 -0.13994,0 0.46082,-0.76356 1.33501,-1.6968 1.09574,-1.16975 1.6974,-1.51607 1.93698,-1.11499 0.19113,0.31999 0.25173,0.74219 0.13464,0.9382 z"
       id="path3100"
       inkscape:connector-curvature="0"
       sodipodi:nodetypes="aaaaaaaasscssssscsssscsssssscsssssscsscsssssaaassssssssscssssscssscccsssssssssssssssssssssscsscccssssssssssscsssscsssssssssssssssssssssssssscssssssssscssssscccccssssssssssssssscssscssssscssscssscscscccscccssssccsssccsssscsssccssssssscssssccsscccsssscsccssccssscccsssccssssssssscsssscssssssssssssssccsssssssssscscsssssscsscssscssssscssscssssssscssssscsssscsssccssscccccccsccc" /><g
       id="g3064"><g
         id="g3066"
         clip-path="url(#clipPath3068)" /></g><g
       id="g3084"><g
         id="g3086"
         clip-path="url(#clipPath3088)" /></g></g></svg>