<?xml version="1.0" encoding="utf-8"?>
<!-- Generator: Adobe Illustrator 12.0.1, SVG Export Plug-In . SVG Version: 6.00 Build 51448)  -->
<!DOCTYPE svg PUBLIC "-//W3C//DTD SVG 1.1//EN" "http://www.w3.org/Graphics/SVG/1.1/DTD/svg11.dtd" [
	<!ENTITY ns_svg "http://www.w3.org/2000/svg">
	<!ENTITY ns_xlink "http://www.w3.org/1999/xlink">
]>
<svg  version="1.1" id="Layer_1" xmlns="&ns_svg;" xmlns:xlink="&ns_xlink;" width="194.144" height="185.464"
	 viewBox="0 0 194.144 185.464" overflow="visible" enable-background="new 0 0 194.144 185.464" xml:space="preserve">
<g>
	<g>
		<g>
			<path fill="#010101" d="M109.487,39.565c-0.396-1.19-1.152-2.305-2.361-3.363c-1.171-1.021-2.853-1.417-5.007-1.114l-6.178,8.729
				l-0.038,0.661l5.743,3.4l0.266,5.97c1.396-1.436,3.361-3.797,5.913-7.084c2.494-3.307,3.061-5.706,1.682-7.198H109.487z"/>
			<path fill="#010101" d="M99.002,36.844c0.34-0.623,0.68-1.228,1.002-1.87c0.15-0.303,0.301-0.604,0.453-0.945
				c-1.285-4.458-3.817-6.366-7.633-5.743c-2.833,2.985-5.309,6.254-7.424,9.824c-0.265,0.454-0.529,0.888-0.775,1.323l9.409,4.383
				C95.922,41.7,97.604,39.375,99.002,36.844z"/>
			<path fill="#010101" d="M115.062,43.891c-1.568-0.358-2.607-0.453-3.137-0.321l-13.13,17.192l-0.02,0.718
				c2.078,1.568,4.363,2.646,6.84,3.269c0.34,0.132,0.698,0.227,1.058,0.321l12.412-14.528
				C117.971,46.48,116.647,44.269,115.062,43.891z"/>
			<path fill="#010101" d="M126.604,59.27c-0.906-4.176-2.891-6.612-5.857-7.331l-12.639,13.849l4.535,4.987
				c4.646-3.061,8.955-6.556,12.941-10.485C125.905,59.969,126.265,59.61,126.604,59.27z"/>
			<path fill="#010101" d="M99.039,59.062c0.436-0.529,0.643-1.077,0.566-1.644c-0.057-0.057-0.094-0.095-0.113-0.095
				c-3.891,0.756-8.444,1.077-13.734,0.926c1.379,0.095,1.53,0.17,0.491,0.227c-1.058,0.038-0.132,0.511,2.721,1.379
				c2.853,0.869,5.347,1.568,7.425,2.098c0.888-0.661,1.644-1.455,2.267-2.361C98.775,59.402,98.926,59.232,99.039,59.062z"/>
			<path fill="#010101" d="M126.51,68.83l-0.868,3.23l3.589-1.001l0.341-0.189L126.51,68.83z"/>
			<path fill="#010101" d="M131.214,64.673c-0.132-1.625-0.245-3.212-0.358-4.837l-2.626,1.304L131.214,64.673z"/>
			<path fill="#010101" d="M140.491,58.741l-2.873-1.549l-0.642,6.934L140.491,58.741z"/>
			<path fill="#010101" d="M140.056,71.664c0.02,0,0.02,0,0.038,0c0.699,0.132,1.228,0.528,1.606,1.133l2.493,3.703
				c0.435-0.378,0.699-0.888,0.851-1.492c0.132-0.699,0-1.342-0.416-1.946l-4.402-6.499l-0.245,2.324l-2.38,0.095l1.794,2.626
				c0.151-0.02,0.284,0,0.473,0.019c0.019,0,0.057,0,0.075,0C139.98,71.644,140.019,71.644,140.056,71.664z"/>
			<path fill="#010101" d="M139.679,72.759h-0.02c-0.34-0.038-0.643,0.057-0.926,0.245c-0.321,0.208-0.548,0.511-0.623,0.945l0,0
				c-0.095,0.377-0.02,0.736,0.227,1.058v0.019l5.97,9.068h0.019c0.227,0.321,0.529,0.529,0.907,0.624
				c0.397,0.037,0.756-0.02,1.114-0.246c0.02-0.019,0.039-0.037,0.057-0.037c0.284-0.228,0.454-0.529,0.549-0.869v0.037
				c0.019-0.207,0.019-0.415,0-0.585c-0.02-0.189-0.095-0.378-0.227-0.548l-5.989-9.05c-0.208-0.34-0.511-0.566-0.888-0.604
				c-0.02-0.02-0.02-0.02-0.038-0.02c-0.038-0.037-0.075-0.037-0.113-0.037C139.679,72.759,139.679,72.759,139.679,72.759z"/>
			<path fill="#010101" d="M137.373,75.668c-0.34-0.453-0.472-0.926-0.453-1.474l-2.399-3.514l-0.453,2.796l-2.021-0.227
				l3.854,5.725c0.396,0.604,0.945,0.963,1.682,1.114c0.68,0.132,1.342,0,1.928-0.416l0.358-0.245l-2.513-3.76H137.373z"/>
			<path fill="#010101" d="M143.343,84.718L143.343,84.718l-0.264-0.397l-0.283,0.737c-0.303,0.661-0.303,1.322,0,2.003
				c0.264,0.661,0.736,1.133,1.416,1.397l9.711,4.024c0.681,0.265,1.342,0.265,2.003,0c0.661-0.283,1.134-0.756,1.417-1.417
				l0.15-0.321l-3.249-1.87c-0.019-0.019-0.019-0.019-0.019-0.057c-0.416,0.113-0.775,0.095-1.134-0.038l-5.706-2.361
				c-0.358-0.151-0.66-0.396-0.83-0.737c-0.492,0.208-1.021,0.265-1.531,0.171h-0.037C144.288,85.701,143.722,85.323,143.343,84.718
				z"/>
			<path fill="#010101" d="M149.03,82.432l4.987,2.04c0.265-0.188,0.548-0.321,0.888-0.415c0.699-0.189,1.322-0.095,1.965,0.264
				l2.627,1.512c0.132-0.566,0.113-1.134-0.133-1.7c-0.265-0.699-0.736-1.152-1.398-1.436l-9.729-3.986
				c-0.698-0.303-1.36-0.303-2.021,0c-0.151,0.057-0.283,0.132-0.415,0.227l1.908,2.891c0.094,0.151,0.188,0.34,0.264,0.51
				C148.35,82.243,148.69,82.262,149.03,82.432z"/>
			<path fill="#010101" d="M154.66,85.455c-0.132,0.113-0.245,0.246-0.341,0.435l0,0c-0.207,0.34-0.264,0.718-0.17,1.077
				c0.095,0.34,0.303,0.604,0.586,0.812c0.057,0.019,0.076,0.057,0.151,0.095l9.352,5.403c0.057,0.037,0.095,0.075,0.171,0.113
				c0.283,0.132,0.604,0.17,0.963,0.057c0.396-0.095,0.68-0.341,0.889-0.661c0.15-0.265,0.227-0.529,0.207-0.794l0,0
				c-0.019-0.095-0.037-0.227-0.057-0.321c-0.094-0.396-0.34-0.68-0.68-0.907l-9.428-5.44c-0.359-0.208-0.736-0.246-1.096-0.151
				c-0.227,0.057-0.416,0.151-0.566,0.283H154.66z"/>
			<path fill="#010101" d="M167.317,86.702c-0.698-0.208-1.359-0.113-1.982,0.227l-2.021,1.096l3.004,1.738
				c0.642,0.378,1.039,0.907,1.228,1.606l0,0c0.038,0.17,0.075,0.358,0.095,0.528c0,0.095,0,0.227,0,0.321l2.531,4.572v-0.019
				c0.17,0.302,0.227,0.642,0.207,0.982c0.076,0.019,0.152,0.057,0.228,0.094h-0.019c0.642,0.283,1.096,0.812,1.341,1.512v-0.019
				l0.567,1.662l0.434-0.246c0.662-0.358,1.059-0.868,1.266-1.587c0.209-0.698,0.133-1.359-0.227-1.983l-5.101-9.22
				C168.527,87.306,167.998,86.91,167.317,86.702z"/>
			<path fill="#010101" d="M163.823,94.391c-0.02-0.019-0.038-0.019-0.057-0.038c-0.02-0.019-0.038-0.019-0.038-0.019
				c-0.038-0.019-0.038-0.019-0.057-0.019l-4.384-2.532c-0.018,0.435,0.096,0.869,0.322,1.285l5.101,9.22
				c0.34,0.642,0.851,1.039,1.55,1.266c0.528,0.132,1.057,0.132,1.549-0.02l-0.832-2.475v0.019
				c-0.207-0.548-0.227-1.076-0.075-1.624c-0.208-0.133-0.378-0.341-0.511-0.586l-2.437-4.421
				C163.898,94.429,163.86,94.41,163.823,94.391z"/>
			<path fill="#010101" d="M170.095,98.907L170.095,98.907c-0.15-0.057-0.264-0.133-0.358-0.151l0.019,0.019
				c-0.245-0.037-0.529-0.019-0.793,0.076c-0.359,0.113-0.643,0.32-0.812,0.661c-0.02,0.019-0.02,0.057-0.038,0.094
				c-0.17,0.321-0.188,0.699-0.038,1.059c0,0,0,0,0.02,0.019l3.533,10.315c0.037,0.095,0.094,0.227,0.17,0.321v0.019
				c0.132,0.189,0.32,0.341,0.586,0.473h-0.02c0.378,0.17,0.736,0.188,1.134,0.075h-0.019c0.358-0.15,0.642-0.358,0.793-0.68
				c0-0.038,0-0.057,0.037-0.057c0.171-0.378,0.209-0.756,0.076-1.134l-3.552-10.277C170.681,99.341,170.454,99.077,170.095,98.907z
				"/>
			<path fill="#010101" d="M168.849,106.501c-0.02,0.019-0.057,0.037-0.076,0.075c-0.547,0.473-0.831,1.077-0.85,1.795
				l-0.492,10.523c-0.037,0.378,0.02,0.698,0.133,1.02l2.967-3.665l-0.038,0.057c0.057-0.094,0.113-0.151,0.17-0.227
				c0.019-0.019,0.019-0.019,0.019-0.019l0.189-3.986c-0.02-0.076-0.038-0.095-0.076-0.151c-0.113-0.17-0.207-0.359-0.264-0.566
				L168.849,106.501z"/>
			<path fill="#010101" d="M175.479,109.656c0.227,0.643,0.189,1.267-0.076,1.89c-0.018,0.057-0.037,0.133-0.113,0.208
				c-0.037,0.057-0.074,0.151-0.113,0.208l-0.227,4.855c0.057,0.094,0.095,0.188,0.133,0.302V117.1
				c0.037,0.151,0.075,0.302,0.094,0.51v0.02c0.076,0.698-0.094,1.341-0.547,1.907l-1.795,2.229l2.398,0.133
				c0.719,0.019,1.342-0.208,1.89-0.699c0.529-0.473,0.812-1.077,0.851-1.813l0.51-10.505c0.02-0.718-0.189-1.36-0.68-1.889
				c-0.492-0.511-1.096-0.812-1.814-0.851l-1.738-0.095l1.229,3.59V109.656z"/>
			<path fill="#010101" d="M164.636,125.451c-0.02,0.019-0.02,0.019-0.02,0.019c-0.189,0.208-0.283,0.453-0.303,0.718
				c0,0.02,0,0.057,0,0.076c-0.019,0.057-0.019,0.132,0,0.227c0,0,0,0,0,0.038c0.02,0.377,0.209,0.718,0.511,0.963
				c0.321,0.265,0.661,0.359,1.077,0.321c0.019,0,0.037,0,0.057,0c0.019,0,0.037,0,0.057,0c0.32-0.057,0.623-0.265,0.869-0.566
				l6.839-8.445v0.019c0.245-0.321,0.34-0.68,0.283-1.076v-0.02c-0.019-0.094-0.019-0.188-0.038-0.245v-0.02
				c-0.094-0.283-0.245-0.51-0.472-0.68c-0.321-0.265-0.661-0.378-1.077-0.34c-0.359,0.057-0.68,0.188-0.906,0.491
				c-0.02,0.019-0.039,0.037-0.076,0.057L164.636,125.451z"/>
			<path fill="#010101" d="M55.738,62.935l0.189-0.095l2.833-5.025c-1.568,0.019-3.117,0.057-4.647,0.075L55.738,62.935z"/>
			<path fill="#010101" d="M64.599,63.861l-2.815,3.212l3.816,0.453L64.599,63.861z"/>
			<path fill="#010101" d="M64.41,54.868l-2.531,5.082l4.609-2.929l-0.132,0.076L64.41,54.868z"/>
			<path fill="#010101" d="M34.371,85.115v0.019c-0.076,0.151-0.113,0.321-0.132,0.491c-0.019,0.189,0.019,0.416,0.094,0.624
				c0,0,0,0,0.019,0.019c0.132,0.378,0.378,0.624,0.755,0.794c0.359,0.17,0.718,0.17,1.115,0.037c0,0,0,0,0.019,0l0.34-0.113h-0.019
				l9.862-3.608c0.378-0.132,0.662-0.396,0.832-0.736c0.057-0.133,0.094-0.246,0.094-0.359v0.02
				c0.076-0.246,0.057-0.529-0.038-0.794l0,0c-0.151-0.396-0.397-0.661-0.737-0.851c-0.265-0.094-0.548-0.15-0.812-0.094
				c-0.019,0-0.019,0-0.019,0c-0.095,0-0.189,0.037-0.283,0.057c-0.019,0-0.019,0-0.019,0l-10.24,3.74
				C34.824,84.492,34.541,84.755,34.371,85.115z"/>
			<path fill="#010101" d="M30.894,91.632c0.17-0.245,0.284-0.491,0.284-0.755c0-0.114,0-0.246,0-0.359
				c-0.076-0.378-0.284-0.699-0.605-0.926c-0.321-0.245-0.661-0.34-1.058-0.283c-0.265,0.038-0.491,0.132-0.661,0.265
				c-0.113,0.094-0.208,0.188-0.303,0.34h-0.019l-6.48,8.747v0.019c-0.264,0.303-0.34,0.643-0.283,1.039c0,0.038,0,0.076,0,0.095
				c0,0.02,0,0.057,0.019,0.076c0.076,0.32,0.264,0.585,0.548,0.793c0.321,0.265,0.68,0.359,1.077,0.303
				c0.303-0.057,0.548-0.17,0.774-0.359c0.076-0.057,0.133-0.151,0.189-0.227L30.894,91.632z"/>
			<path fill="#010101" d="M20.352,106.067c-0.019,0.037-0.038,0.075-0.057,0.094c-0.283,0.284-0.378,0.643-0.378,1.04l0.718,10.9
				c0,0.02,0,0.02,0,0.038c0,0.095,0.038,0.188,0.076,0.283v0.019c0.057,0.265,0.208,0.473,0.435,0.661
				c0.283,0.246,0.623,0.378,1.039,0.359c0.415-0.019,0.755-0.188,1.02-0.51v0.019c0.189-0.208,0.303-0.453,0.34-0.699
				c0.019-0.132,0.019-0.245,0-0.34v-0.019l-0.699-10.883c-0.019-0.264-0.113-0.528-0.227-0.736v0.019
				c-0.076-0.113-0.189-0.208-0.283-0.283c-0.284-0.283-0.642-0.396-1.039-0.359l0,0C20.919,105.689,20.598,105.84,20.352,106.067z"
				/>
			<path fill="#010101" d="M33.312,84.624L33.312,84.624c0.302-0.661,0.812-1.096,1.493-1.36l3.269-1.19l-0.133-0.188
				c-0.378-0.624-0.926-1.039-1.625-1.19c-0.699-0.17-1.36-0.038-1.984,0.321l-8.974,5.535c-0.643,0.378-1.021,0.907-1.19,1.606
				c-0.189,0.718-0.057,1.379,0.34,1.983l1.077,1.795l2.021-2.702v-0.037c0.17-0.227,0.359-0.416,0.548-0.567
				c0.095-0.037,0.17-0.094,0.265-0.17c0.132-0.15,0.302-0.302,0.472-0.396l4.175-2.588C33.085,85.19,33.18,84.907,33.312,84.624z"
				/>
			<path fill="#010101" d="M55.001,67.771c-0.019,0.076-0.057,0.171-0.094,0.228l-3.703,5.365v0.019
				c-0.208,0.265-0.283,0.567-0.246,0.888c0,0.02,0,0.038,0,0.057c0,0.038,0,0.076,0.019,0.114c0.057,0.396,0.265,0.698,0.604,0.925
				l0,0c0.302,0.189,0.604,0.284,0.944,0.265c0.038-0.019,0.113-0.019,0.189-0.019h-0.019c0.397-0.095,0.699-0.303,0.926-0.623
				l3.949-5.706l-1.549-0.057l-0.208-1.284L55.001,67.771z"/>
			<path fill="#010101" d="M49.579,70.02c-0.718,0.094-1.304,0.435-1.701,1.02l-6.253,8.483c-0.321,0.472-0.511,0.926-0.511,1.454
				l3.911-1.454c0.208-0.057,0.396-0.113,0.604-0.151l3.495-4.724v0.038c0.17-0.265,0.378-0.453,0.661-0.604
				c0-0.491,0.132-0.964,0.473-1.398l1.436-2.078l-0.17-0.132C50.939,70.039,50.297,69.887,49.579,70.02z"/>
			<path fill="#010101" d="M48.937,82.206c-0.133,0.151-0.265,0.283-0.454,0.415c-0.038,0.151-0.094,0.303-0.151,0.454
				c0,0.019,0,0.019-0.019,0.037c-0.321,0.643-0.793,1.096-1.474,1.342l-1.965,0.718l1.606,1.19
				c0.585,0.435,1.247,0.586,1.964,0.473c0.699-0.095,1.266-0.454,1.701-1.039l6.253-8.502c0.416-0.567,0.567-1.229,0.473-1.928
				c-0.095-0.68-0.435-1.228-0.944-1.662l-1.342,1.946c-0.435,0.604-1.001,0.982-1.682,1.114c-0.019,0-0.019,0-0.038,0
				s-0.019,0-0.038,0c-0.057,0.151-0.132,0.303-0.227,0.435l-3.665,4.969V82.206z"/>
			<path fill="#010101" d="M36.864,88.119c-0.113,0.151-0.284,0.283-0.435,0.416l-4.081,2.475c-0.038,0.491-0.208,0.926-0.51,1.322
				l-2.683,3.628c0.624,0.075,1.19-0.057,1.738-0.378l8.993-5.536c0.623-0.378,1.001-0.926,1.19-1.624
				c0.113-0.643,0.057-1.21-0.208-1.776l-3.911,1.417c-0.019,0-0.019,0-0.019,0.038L36.864,88.119z"/>
			<path fill="#010101" d="M28.741,96.752c-0.02-0.075-0.057-0.095-0.057-0.151l-3.382,4.497c-0.095,0.132-0.208,0.245-0.34,0.396
				v-0.019c-0.057,0.057-0.094,0.094-0.151,0.132l-1.229,4.062c0.265,0.378,0.378,0.812,0.416,1.285l0.245,3.59
				c0.133-0.057,0.265-0.113,0.378-0.17c0.662-0.359,1.059-0.869,1.266-1.55l3.061-10.088
				C29.156,98.038,29.081,97.376,28.741,96.752z"/>
			<path fill="#010101" d="M23.734,94.429l-1.663-0.511c-0.68-0.208-1.341-0.132-1.965,0.189c-0.642,0.34-1.058,0.869-1.266,1.567
				l-3.061,10.089c-0.208,0.681-0.151,1.342,0.208,1.984c0.321,0.642,0.851,1.058,1.53,1.266l1.398,0.435l-0.17-2.173
				c-0.057-0.681,0.17-1.322,0.642-1.833c-0.076-0.283-0.076-0.585,0.019-0.888v0.038l1.304-4.232
				c-0.038-0.075-0.038-0.151-0.076-0.245v-0.02c0-0.094-0.038-0.17-0.038-0.227c-0.076-0.718,0.076-1.36,0.51-1.927L23.734,94.429z
				"/>
			<path fill="#010101" d="M16.744,116.269c-0.566,0.435-0.888,1.02-0.982,1.757c-0.076,0.699,0.113,1.322,0.567,1.889l6.612,8.219
				c0.454,0.566,1.02,0.869,1.757,0.963c0.699,0.076,1.341-0.132,1.908-0.566l0.397-0.321l-2.739-1.889
				c-0.604-0.435-0.964-1.002-1.059-1.72v0.038c-0.113-0.416-0.094-0.794,0.02-1.152l-2.74-3.4
				c-0.057-0.058-0.094-0.076-0.132-0.095v-0.038c-0.378-0.34-0.643-0.718-0.774-1.171l0.019,0.019
				c-0.075-0.208-0.113-0.416-0.113-0.623l-0.265-3.93L16.744,116.269z"/>
			<path fill="#010101" d="M24.546,113.302c-0.038-0.057-0.095-0.094-0.132-0.17l0.302,4.704c0,0.189,0,0.397-0.019,0.604
				l2.664,3.307c0.132,0.17,0.227,0.34,0.284,0.51l0.019,0.02c0,0,0,0,0.019,0.019l3.552,2.438c0.264-0.378,0.434-0.832,0.491-1.304
				c0.076-0.718-0.114-1.38-0.548-1.928L24.546,113.302z"/>
			<path fill="#010101" d="M102.781,88.628c-0.436,0-1.021,0-1.758,0.038h1.758C102.781,88.628,102.781,88.628,102.781,88.628z"/>
			<path fill="#010101" d="M105.217,85.625c-0.453-0.926-2.248-4.591-5.326-10.977c-3.118-6.423-8.786-11.939-16.985-16.53
				l3.514-1.323l-0.963-5.006c1.719,2.701,4.081,4.27,7.047,4.704c4.799,0.623,7.558-0.926,8.313-4.686
				c0.207-1.096,0.188-2.153-0.113-3.212c-5.725-2.607-11.488-5.157-17.269-7.651c-0.51-0.208-1.02-0.378-1.587-0.472l-13.13,18.4
				C73.61,68.3,79.429,77.388,86.155,86.079l-8.729,37.199c8.067,2.116,14.435,6.858,19.101,14.264
				c3.571-25.486,5.649-41.79,6.254-48.856c0,0,0,0,0-0.019h-1.758c0.736-0.038,1.322-0.038,1.758-0.038c0-0.037,0-0.037,0-0.037
				h0.887h0.096c-0.115-2.947,0.037-3.968,0.566-3.061L105.217,85.625z"/>
			<path fill="#010101" d="M105.217,85.625l-0.887-0.094c-0.529-0.907-0.682,0.113-0.566,3.061h-0.096l0.096,0.075
				c-0.852,7.066-2.57,23.71-5.196,49.934c0.302,0.019,0.604,0.057,0.907,0.113c3.664-6.234,8.464-10.713,14.34-13.452
				c-0.397-16.568-0.643-27.054-0.681-31.513c0-1.096,0.246-2.002,0.756-2.739c5.139-7.52,7.822-15.851,8.029-25.052l-9.521,6.046
				c-0.189-0.151-0.378-0.303-0.51-0.473c-4.818-5.63-11.487-8.672-19.933-9.087c6.631,5.214,11.24,12.96,13.887,23.2l0.736,0.132
				L105.217,85.625z"/>
			<path fill="#010101" d="M163.143,126.017c0.057-0.473,0.245-0.906,0.586-1.322l2.173-2.702c-0.265-0.132-0.566-0.227-0.889-0.264
				c-0.699-0.113-1.341,0.037-1.908,0.472l-3.23,2.399c-0.416-0.566-0.812-1.114-1.228-1.662c-0.019,0.019-0.019,0.019-0.038,0.037
				c-1.172,1.247-2.438,2.343-3.816,3.345v0.019c-1.662,1.19-3.438,2.191-5.346,2.985c-2.93,1.228-6.197,2.021-9.768,2.361
				c-2.135,0.227-4.384,0.245-6.727,0.151c-7.896-0.359-14.17,0.415-18.893,2.305c-1.795,0.718-3.4,1.605-4.742,2.645v0.02
				c-0.566,0.435-1.076,0.831-1.549,1.209c-1.682,1.341-3.022,2.494-4.044,3.457c0.039,0.038,0.076,0.076,0.113,0.113
				c1.492-1.417,3.138-2.645,4.913-3.684c1.662-0.982,3.42-1.795,5.328-2.476c5.875-2.059,12.941-2.663,21.159-1.832
				c0.208,0.019,0.397,0.057,0.624,0.075c2.248,0.208,4.383,0.34,6.366,0.397c1.7,0.037,3.306,0.019,4.799-0.058
				c4.761-0.245,8.615-1.096,11.638-2.531h-0.019c0.528-0.265,1.001-0.548,1.511-0.831c0.907-0.604,1.72-1.229,2.438-1.946
				c0-0.037,0-0.037,0.02-0.037c-0.322-0.511-0.643-1.021-0.964-1.512L163.143,126.017z"/>
			<path fill="#010101" d="M169.339,130.684c0.586-0.416,0.945-0.982,1.039-1.701c0.096-0.718-0.074-1.359-0.472-1.927l-0.642-0.869
				L167.81,128h-0.02c-0.434,0.529-0.963,0.832-1.568,0.945c-0.094,0.188-0.264,0.378-0.472,0.51v0.019l-1.852,1.342
				c-0.113-0.208-0.227-0.396-0.321-0.586c-1.189,1.19-2.645,2.211-4.346,3.061c-4.27,2.078-10.296,2.985-18.023,2.684
				c-0.264-0.02-0.49-0.02-0.736-0.038c-0.623,0-1.266-0.038-1.908-0.095c-0.982-0.075-2.021-0.17-3.061-0.265
				c-0.151-0.019-0.265-0.019-0.416-0.037c-13.301-1.38-23.445,1.152-30.341,7.632c0,0.02,0,0.057,0.018,0.076
				c5.649-3.628,10.997-5.385,16.003-5.271c3.949,0.038,9.145,0.51,15.567,1.342c1.247,0.151,2.513,0.321,3.854,0.51
				c0.49,0.057,1.001,0.113,1.512,0.189c0.49,0.075,0.944,0.15,1.436,0.227c0.944,0.15,1.908,0.245,2.853,0.34
				c6.046,0.623,11.524,0.245,16.399-1.077c1.643-0.435,3.249-1.021,4.779-1.682c-0.491-1.36-1.096-2.758-1.795-4.193
				L169.339,130.684z"/>
			<path fill="#010101" d="M162.728,141.415c-5.801,1.568-12.395,1.833-19.781,0.756c-0.302-0.057-0.566-0.095-0.85-0.132
				c-0.794-0.113-1.568-0.228-2.324-0.321c-0.529-0.076-1.039-0.151-1.512-0.208c-1.341-0.17-2.645-0.359-3.892-0.511
				c-5.554-0.661-10.089-1.02-13.622-1.076c-4.553-0.095-9.37,1.417-14.49,4.553h62.459c-0.132-1.568-0.453-3.174-0.944-4.855
				h-0.019C166.128,140.337,164.466,140.923,162.728,141.415z"/>
			<path fill="#010101" d="M152.317,115.57c-0.037,0.037-0.076,0.075-0.076,0.095c-0.736,0.793-2.531,2.645-5.327,5.535
				c-2.909,2.985-9.786,5.139-20.669,6.518c-4.516,0.567-8.576,1.738-12.261,3.533c-3.703,1.795-7.047,4.232-9.977,7.312
				c-0.434,0.453-0.869,0.944-1.303,1.417c0.49-0.435,1.02-0.944,1.662-1.493c1.115-0.963,2.476-2.078,4.081-3.324h0.038
				c1.53-1.229,3.382-2.268,5.517-3.061c4.837-1.814,11.166-2.551,18.987-2.211c8.577,0.378,15.567-1.36,21.009-5.252
				c1.266-0.907,2.455-1.927,3.552-3.08c-0.737-0.925-1.493-1.832-2.286-2.739C154.282,117.686,153.3,116.609,152.317,115.57z"/>
			<path fill="#010101" d="M151.108,114.323c-1.928-1.927-3.854-3.684-5.801-5.29c-0.094,1.625-1.379,4.043-3.816,7.255
				c-2.758,3.665-9.2,6.48-19.383,8.351c-2.967,0.566-5.725,1.455-8.219,2.664c-5.082,2.493-9.259,6.348-12.563,11.6
				c3.57-4.251,7.765-7.481,12.602-9.729c3.665-1.7,7.728-2.834,12.147-3.382c10.447-1.285,17.061-3.325,19.838-6.083
				C148.596,116.967,150.333,115.173,151.108,114.323z"/>
			<path fill="#010101" d="M103.271,144.815c-0.264-0.906-0.699-1.737-1.322-2.475c-0.982-1.19-2.211-1.757-3.627-1.795
				c-1.436,0.038-2.646,0.604-3.666,1.795c-0.624,0.737-1.058,1.568-1.304,2.475H103.271z"/>
			<path fill="#010101" d="M77.011,125.167c-0.794-0.208-1.568-0.378-2.362-0.529c-10.183-1.87-16.644-4.686-19.403-8.351
				c-2.437-3.212-3.703-5.63-3.797-7.255c-1.964,1.606-3.892,3.363-5.8,5.29c0.756,0.851,2.494,2.645,5.196,5.385
				c2.777,2.758,9.39,4.798,19.837,6.083c2.04,0.265,4.024,0.643,5.913,1.134c7.52,2.002,13.792,6.008,18.817,11.978
				C90.916,131.742,84.776,127.189,77.011,125.167z"/>
			<path fill="#010101" d="M44.516,115.665c-0.019-0.02-0.076-0.058-0.094-0.095c-0.982,1.039-1.965,2.116-2.947,3.249
				c-0.812,0.907-1.568,1.814-2.267,2.739c1.077,1.153,2.267,2.173,3.552,3.08c5.422,3.892,12.413,5.63,20.99,5.252
				c4.496-0.208,8.501-0.038,12.016,0.473c5.29,0.793,9.446,2.38,12.507,4.799c1.7,1.322,3.136,2.475,4.289,3.495
				c0.567,0.472,1.039,0.926,1.493,1.322c-0.359-0.416-0.756-0.812-1.115-1.229c-4.628-4.893-10.202-8.199-16.795-9.938
				c-1.813-0.491-3.665-0.85-5.63-1.096c-10.901-1.379-17.778-3.532-20.65-6.518C47.009,118.309,45.234,116.458,44.516,115.665z"/>
			<path fill="#010101" d="M38.13,122.975c-0.02-0.019-0.02-0.019-0.02-0.037c-1.133,1.454-2.191,2.928-3.136,4.364
				c-0.208,0.34-0.396,0.661-0.624,1.001l-7.331-5.063l0.019,0.038l-0.435-0.303c0-0.019,0-0.019-0.019-0.019
				c-0.34-0.245-0.718-0.302-1.077-0.245c-0.416,0.075-0.718,0.283-0.945,0.604c-0.019,0-0.019,0.019-0.019,0.057
				c-0.095,0.094-0.151,0.227-0.189,0.358v0.02c-0.057,0.227-0.076,0.435-0.019,0.642v0.02c0.057,0.415,0.265,0.718,0.586,0.944
				l7.935,5.46c-0.208,0.34-0.396,0.68-0.566,1.001c-0.076,0.151-0.151,0.303-0.246,0.435c-1.001,1.928-1.832,3.779-2.475,5.573
				c1.53,0.661,3.117,1.247,4.78,1.682c5.649,1.512,12.072,1.757,19.251,0.737c8.351-1.229,15.02-1.965,20.121-2.191
				c0.793-0.038,1.511-0.058,2.249-0.076c0.227,0,0.472,0,0.699,0c4.761,0.038,9.843,1.776,15.19,5.177
				c0.038,0,0.038-0.019,0.038-0.057c-3.816-3.552-8.634-5.913-14.416-7.065c-0.264-0.057-0.548-0.095-0.793-0.133
				c-2.551-0.473-5.29-0.718-8.218-0.718c-0.246,0-0.51,0-0.756,0c-1.965,0.019-3.967,0.151-6.083,0.359
				c-2.569,0.283-5.025,0.415-7.312,0.491c-2.664,0.057-5.101-0.057-7.33-0.284c-3.778-0.396-6.915-1.228-9.465-2.456h-0.019
				c-0.491-0.245-0.926-0.491-1.36-0.755c-0.415-0.246-0.812-0.511-1.171-0.756c-0.661-0.511-1.266-1.002-1.795-1.55
				c0-0.019,0-0.037-0.019-0.037c-0.189-0.17-0.284-0.397-0.303-0.661c-0.019-0.265,0.057-0.511,0.189-0.719
				c0.132-0.207,0.321-0.34,0.528-0.34c0.208-0.038,0.397,0.038,0.548,0.189c0.02,0,0.02,0,0.038,0.037
				c0.604,0.586,1.266,1.152,2.021,1.663c0.34,0.245,0.699,0.453,1.058,0.661c0.283,0.151,0.548,0.321,0.85,0.453
				c1.171,0.548,2.456,1.021,3.93,1.417c2.38,0.624,5.12,0.982,8.218,1.134c3.325,0.132,7.104,0,11.279-0.435
				c2.418-0.265,4.723-0.378,6.953-0.378c1.436,0,2.89,0.075,4.289,0.188c0.756,0.057,1.492,0.133,2.248,0.228
				c4.44,0.585,8.389,1.794,11.827,3.627c2.191,1.152,4.213,2.569,6.008,4.251c0.019-0.038,0.057-0.076,0.094-0.113
				c-1.115-1.039-2.55-2.268-4.402-3.741c-0.359-0.302-0.737-0.566-1.096-0.85l-0.019-0.02c-2.928-2.267-6.991-3.797-12.091-4.515
				c-3.363-0.491-7.217-0.624-11.524-0.435c-8.917,0.415-16.191-1.417-21.859-5.498v-0.019
				C40.567,125.318,39.301,124.222,38.13,122.975z"/>
			<path fill="#010101" d="M90.481,144.475c-5.101-3.136-9.957-4.647-14.491-4.553c-5.214,0.095-12.602,0.831-22.199,2.248
				c-7.387,1.077-13.961,0.812-19.781-0.756l0,0c-1.738-0.491-3.4-1.077-5.006-1.795h-0.019c-0.491,1.682-0.831,3.287-0.963,4.855
				H90.481z"/>
		</g>
	</g>
	<g>
		<path fill="#010101" d="M20.512,69.035l-1.267,4.933l-3.279,0.432c-1.2,0.16-2.096,0.351-2.69,0.572
			c-0.594,0.221-1.003,0.479-1.23,0.776c-0.226,0.296-0.407,0.708-0.542,1.233l-0.133,0.516l6.535,1.68l-1.175,4.577L0,79.455
			l2.004-7.797c0.322-1.258,0.87-2.217,1.639-2.876c0.771-0.66,1.603-1.063,2.497-1.212c0.896-0.147,1.706-0.129,2.43,0.058
			c0.844,0.217,1.52,0.548,2.027,0.996c0.507,0.446,0.852,0.868,1.032,1.267c0.181,0.397,0.339,0.833,0.475,1.305
			c0.439-0.41,0.916-0.719,1.428-0.926c0.513-0.209,1.496-0.419,2.949-0.63L20.512,69.035z M7.464,72.335
			c-0.773-0.198-1.372-0.106-1.795,0.273c-0.424,0.382-0.771,1.092-1.037,2.128l-0.248,0.965l4.035,1.037l0.254-0.985
			c0.287-1.118,0.348-1.918,0.184-2.4C8.694,72.872,8.229,72.532,7.464,72.335z"/>
		<path fill="#010101" d="M26.14,57.449L21.12,68.162L5.47,60.827l4.938-10.538l3.139,1.471l-2.933,6.259l2.868,1.345l2.798-5.972
			l3.154,1.479l-2.798,5.971l3.334,1.563l3.015-6.434L26.14,57.449z"/>
		<path fill="#010101" d="M37.329,41.735l-2.881,3.901l-3.576-1.05l-4.053,5.486l2.039,3.127l-2.881,3.901l-9.763-15.85l3.111-4.211
			L37.329,41.735z M27.816,43.681l-6.44-1.899l3.693,5.618L27.816,43.681z"/>
		<path fill="#010101" d="M44.927,24.308c1.158,1.339,1.866,2.605,2.125,3.798c0.259,1.193,0.307,2.3,0.143,3.319
			c-0.217,1.472-1.092,2.87-2.625,4.194l-0.18,0.156l-6.237,5.393L26.851,28.094l4.941-4.271c0.744-0.643,1.417-1.149,2.019-1.522
			c0.604-0.372,1.183-0.664,1.739-0.875c0.557-0.212,1.067-0.35,1.529-0.416c0.464-0.063,0.908-0.088,1.333-0.069
			c0.721,0.014,1.448,0.138,2.183,0.372c0.734,0.233,1.475,0.599,2.22,1.097C43.56,22.909,44.265,23.542,44.927,24.308z
			 M41.147,27.282c-0.919-1.062-1.82-1.731-2.703-2.008c-0.883-0.274-1.67-0.288-2.361-0.042c-0.691,0.245-1.307,0.602-1.844,1.066
			l-1.527,1.32l6.694,7.743l1.527-1.32c0.938-0.812,1.539-1.759,1.8-2.843C42.996,30.115,42.468,28.809,41.147,27.282z"/>
		<path fill="#010101" d="M62.311,23.947l-10.279,5.849l-8.544-15.018l10.113-5.753l1.714,3.012l-6.005,3.416l1.567,2.755
			l5.729-3.259l1.722,3.026l-5.729,3.26l1.818,3.195l6.171-3.511L62.311,23.947z"/>
		<path fill="#010101" d="M78.528,18.133l-4.813,1.653l-2.161-2.497c-0.792-0.912-1.444-1.556-1.955-1.93
			c-0.512-0.373-0.954-0.572-1.325-0.599c-0.372-0.025-0.814,0.051-1.329,0.227l-0.501,0.173l2.188,6.372l-4.476,1.538l-5.614-16.34
			l7.614-2.616c1.228-0.422,2.328-0.492,3.304-0.212c0.974,0.281,1.77,0.755,2.387,1.424c0.616,0.667,1.047,1.354,1.29,2.062
			c0.283,0.826,0.378,1.574,0.285,2.244c-0.093,0.669-0.257,1.188-0.489,1.559c-0.232,0.37-0.508,0.742-0.827,1.116
			c0.584,0.142,1.104,0.369,1.559,0.683c0.454,0.313,1.17,1.018,2.146,2.112L78.528,18.133z M68.603,9.056
			c-0.26-0.756-0.666-1.206-1.217-1.351c-0.552-0.146-1.335-0.044-2.347,0.304l-0.941,0.324l1.356,3.945l0.962-0.332
			c1.09-0.374,1.793-0.763,2.104-1.165C68.832,10.379,68.86,9.805,68.603,9.056z"/>
		<path fill="#010101" d="M89.706,11.599c0.16,1.066,0.051,2.027-0.329,2.882c-0.38,0.854-0.982,1.557-1.809,2.104
			c-0.826,0.549-1.814,0.909-2.964,1.082c-0.322,0.048-0.719,0.085-1.192,0.11c-0.474,0.024-1.113-0.007-1.917-0.096
			c-0.805-0.089-1.655-0.271-2.552-0.547l-0.629-4.187c0.865,0.417,1.704,0.744,2.516,0.983c0.812,0.239,1.651,0.293,2.519,0.163
			c0.8-0.12,1.295-0.345,1.487-0.671c0.192-0.328,0.268-0.62,0.229-0.875c-0.069-0.46-0.33-0.818-0.783-1.074
			s-1.091-0.494-1.915-0.716c-0.911-0.266-1.721-0.583-2.433-0.951c-0.711-0.368-1.322-0.871-1.834-1.509
			c-0.512-0.639-0.839-1.434-0.983-2.387c-0.139-0.922-0.058-1.784,0.241-2.591c0.299-0.806,0.837-1.494,1.614-2.065
			c0.777-0.57,1.774-0.948,2.992-1.131c0.866-0.131,1.681-0.158,2.446-0.084c0.762,0.074,1.401,0.19,1.914,0.348
			c0.512,0.159,0.868,0.29,1.067,0.394l0.603,4.006c-0.711-0.405-1.487-0.746-2.327-1.023s-1.706-0.349-2.595-0.215
			c-0.583,0.087-0.987,0.274-1.211,0.561s-0.31,0.61-0.256,0.972c0.051,0.337,0.227,0.61,0.527,0.816
			c0.299,0.208,0.813,0.438,1.542,0.689C84.961,7.026,86,7.437,86.79,7.823c0.791,0.386,1.438,0.871,1.942,1.455
			C89.236,9.863,89.56,10.636,89.706,11.599z"/>
		<path fill="#010101" d="M120.998,19.607l-4.769-0.88l-0.624-3.669l-6.708-1.238l-1.916,3.199l-4.769-0.88l9.966-15.727
			l5.147,0.951L120.998,19.607z M115.08,11.906l-1.114-6.627l-3.432,5.787L115.08,11.906z"/>
		<path fill="#010101" d="M135.687,24.671c-0.368-0.002-0.683-0.009-0.94-0.019c-0.259-0.01-0.506-0.023-0.741-0.041
			c-0.234-0.019-0.57-0.056-1.006-0.113c-0.73-0.11-1.444-0.261-2.138-0.449c-0.695-0.19-1.407-0.439-2.138-0.747
			c-1.467-0.619-2.698-1.488-3.693-2.604s-1.605-2.451-1.828-4.008c-0.224-1.558,0.048-3.24,0.812-5.049
			c0.49-1.165,1.167-2.227,2.025-3.188c0.859-0.959,1.827-1.609,2.902-1.95c0.89-0.281,1.732-0.427,2.527-0.438
			c0.797-0.009,1.536,0.07,2.218,0.242c0.682,0.171,1.41,0.419,2.182,0.746c1.274,0.538,2.281,1.086,3.021,1.646
			c0.738,0.559,1.53,1.22,2.374,1.98l-1.589,3.762c-0.478-0.697-1.021-1.342-1.633-1.934c-0.612-0.592-1.465-1.12-2.558-1.581
			c-1.261-0.532-2.379-0.695-3.356-0.489s-1.769,0.61-2.371,1.214c-0.604,0.604-1.05,1.246-1.338,1.929
			c-0.34,0.805-0.482,1.618-0.429,2.44c0.055,0.822,0.34,1.585,0.856,2.286c0.515,0.7,1.26,1.257,2.234,1.669
			c0.557,0.234,1.183,0.404,1.878,0.507l0.792-1.877l-1.962-0.828l1.352-3.201l5.779,2.44L135.687,24.671z"/>
		<path fill="#010101" d="M151.302,36.853l-3.958-2.801l0.977-3.599l-5.567-3.938l-3.087,2.107l-3.959-2.8l15.647-10.097
			l4.273,3.023L151.302,36.853z M149.17,27.37l1.755-6.465l-5.529,3.796L149.17,27.37z"/>
		<path fill="#010101" d="M155.053,41.203l-3.372-3.294l12.07-12.357l3.373,3.295L155.053,41.203z"/>
		<path fill="#010101" d="M167.331,56.797l-2.483-3.414l2.995-12.229l-7.775,5.656l-2.762-3.796l13.965-10.158l2.475,3.402
			l-2.963,12.176l7.729-5.623l2.783,3.826L167.331,56.797z"/>
		<path fill="#010101" d="M177.562,67.324c-0.983,0.446-1.937,0.604-2.862,0.473c-0.926-0.133-1.765-0.521-2.518-1.165
			c-0.752-0.646-1.37-1.497-1.85-2.555c-0.134-0.297-0.277-0.669-0.432-1.117c-0.152-0.448-0.296-1.071-0.43-1.868
			c-0.135-0.797-0.191-1.665-0.169-2.603l3.855-1.749c-0.165,0.944-0.252,1.839-0.262,2.684c-0.009,0.845,0.167,1.666,0.528,2.463
			c0.334,0.735,0.684,1.149,1.051,1.244s0.668,0.089,0.902-0.018c0.424-0.193,0.698-0.539,0.822-1.041
			c0.123-0.501,0.181-1.175,0.172-2.02c0.007-0.949,0.091-1.818,0.25-2.604c0.158-0.786,0.475-1.514,0.948-2.181
			c0.473-0.667,1.148-1.2,2.026-1.598c0.847-0.386,1.699-0.544,2.556-0.476c0.857,0.066,1.667,0.396,2.428,0.987
			s1.396,1.447,1.904,2.567c0.36,0.797,0.609,1.573,0.747,2.328c0.137,0.754,0.198,1.399,0.187,1.936
			c-0.013,0.536-0.042,0.914-0.088,1.134l-3.689,1.674c0.196-0.793,0.313-1.631,0.352-2.513c0.038-0.883-0.129-1.731-0.499-2.549
			c-0.243-0.535-0.532-0.873-0.868-1.01s-0.671-0.129-1.004,0.021c-0.311,0.141-0.525,0.382-0.644,0.725
			c-0.118,0.342-0.201,0.895-0.248,1.657c-0.067,1.358-0.179,2.471-0.334,3.336c-0.154,0.867-0.443,1.622-0.868,2.267
			C179.104,66.399,178.448,66.922,177.562,67.324z"/>
		<path fill="#010101" d="M190.067,82.876l-1.373-5.59l-12.699,3.119l-1.127-4.592l12.698-3.119l-1.373-5.589l4.077-1.002
			l3.873,15.771L190.067,82.876z"/>
	</g>
	<g>
		<path fill="#010101" d="M76.581,169.901c0,3.309-0.548,5.964-1.642,7.968s-2.382,3.627-3.864,4.869
			c-2.103,1.817-5.043,2.727-8.823,2.727h-0.444H46.425v-32.281h12.188c1.834,0,3.403,0.104,4.708,0.314
			c1.305,0.209,2.479,0.504,3.523,0.884s1.933,0.807,2.666,1.28c0.733,0.473,1.389,0.98,1.968,1.523
			c1.002,0.9,1.881,1.964,2.636,3.19c0.756,1.227,1.355,2.647,1.801,4.263C76.358,166.252,76.581,168.007,76.581,169.901z
			 M67.581,169.482c0-2.625-0.455-4.67-1.365-6.139c-0.909-1.467-2.002-2.449-3.278-2.946s-2.578-0.745-3.903-0.745h-3.766v19.125
			h3.766c2.312,0,4.315-0.605,6.008-1.817C66.734,175.749,67.581,173.255,67.581,169.482z"/>
		<path fill="#010101" d="M109.987,185.464h-9.491l-2.305-5.727c-0.847-2.096-1.607-3.628-2.284-4.598s-1.336-1.591-1.978-1.862
			s-1.47-0.407-2.484-0.407h-0.994v12.594h-8.844v-32.281h15.034c2.425,0,4.412,0.543,5.963,1.631
			c1.551,1.086,2.668,2.406,3.352,3.959c0.684,1.554,1.026,3.029,1.026,4.427c0,1.631-0.286,3.009-0.856,4.135
			s-1.172,1.945-1.806,2.458s-1.346,1.002-2.134,1.467c0.944,0.605,1.723,1.324,2.336,2.154c0.613,0.831,1.448,2.512,2.505,5.041
			L109.987,185.464z M97.982,163.377c0-1.491-0.444-2.532-1.333-3.122s-2.334-0.885-4.337-0.885h-1.861v7.781h1.903
			c2.158,0,3.636-0.26,4.433-0.781C97.584,165.851,97.982,164.853,97.982,163.377z"/>
		<path fill="#010101" d="M147.719,185.464h-8.844v-18.688l-7.998,10.812h-0.7l-8.021-10.812v18.688h-8.562v-32.281h7.993
			l9.035,12.125l9.078-12.125h8.019V185.464z"/>
	</g>
</g>
</svg>
