<?xml version="1.0" encoding="utf-8"?>
<!-- Generator: Adobe Illustrator 12.0.1, SVG Export Plug-In . SVG Version: 6.00 Build 51448)  -->
<!DOCTYPE svg PUBLIC "-//W3C//DTD SVG 1.1//EN" "http://www.w3.org/Graphics/SVG/1.1/DTD/svg11.dtd" [
	<!ENTITY ns_svg "http://www.w3.org/2000/svg">
	<!ENTITY ns_xlink "http://www.w3.org/1999/xlink">
]>
<svg  version="1.1" id="Layer_1" xmlns="&ns_svg;" xmlns:xlink="&ns_xlink;" width="162.823" height="185.409"
	 viewBox="0 0 162.823 185.409" overflow="visible" enable-background="new 0 0 162.823 185.409" xml:space="preserve">
<g>
	<g>
		<g>
			<path fill="#010101" d="M93.828,11.394c-0.398-1.189-1.152-2.305-2.363-3.362c-1.17-1.021-2.852-1.417-5.006-1.114l-6.177,8.729
				l-0.037,0.66l5.742,3.4l0.266,5.971c1.398-1.436,3.361-3.797,5.912-7.084c2.494-3.307,3.061-5.706,1.682-7.199H93.828z"/>
			<path fill="#010101" d="M83.342,8.673c0.34-0.623,0.68-1.227,1.002-1.869c0.15-0.303,0.303-0.605,0.453-0.945
				c-1.285-4.459-3.816-6.367-7.632-5.743c-2.834,2.985-5.309,6.253-7.425,9.824c-0.265,0.454-0.528,0.888-0.774,1.323l9.408,4.383
				C80.262,13.528,81.944,11.205,83.342,8.673z"/>
			<path fill="#010101" d="M99.4,15.72c-1.568-0.357-2.607-0.453-3.137-0.32L83.135,32.592l-0.02,0.718
				c2.078,1.568,4.363,2.645,6.84,3.269c0.34,0.132,0.699,0.227,1.057,0.321l12.412-14.529C102.311,18.31,100.986,16.099,99.4,15.72
				z"/>
			<path fill="#010101" d="M110.943,31.099c-0.906-4.175-2.891-6.611-5.857-7.33L92.447,37.617l4.535,4.987
				c4.646-3.061,8.955-6.556,12.941-10.485C110.244,31.798,110.604,31.438,110.943,31.099z"/>
			<path fill="#010101" d="M83.379,30.892c0.436-0.529,0.643-1.077,0.568-1.645c-0.057-0.057-0.096-0.094-0.113-0.094
				c-3.892,0.756-8.445,1.076-13.736,0.926c1.379,0.094,1.531,0.17,0.492,0.227c-1.059,0.037-0.133,0.51,2.721,1.379
				c2.852,0.869,5.346,1.568,7.424,2.098c0.889-0.662,1.644-1.455,2.267-2.361C83.115,31.231,83.266,31.062,83.379,30.892z"/>
			<path fill="#010101" d="M110.85,40.659l-0.869,3.23l3.59-1.002l0.34-0.188L110.85,40.659z"/>
			<path fill="#010101" d="M115.553,36.503c-0.131-1.625-0.244-3.213-0.357-4.837l-2.627,1.304L115.553,36.503z"/>
			<path fill="#010101" d="M124.83,30.569l-2.873-1.549l-0.641,6.934L124.83,30.569z"/>
			<path fill="#010101" d="M124.395,43.493c0.02,0,0.02,0,0.039,0c0.699,0.132,1.227,0.528,1.605,1.133l2.494,3.703
				c0.434-0.378,0.699-0.889,0.85-1.492c0.133-0.699,0-1.342-0.416-1.946l-4.402-6.499l-0.244,2.324l-2.381,0.094l1.795,2.627
				c0.15-0.02,0.283,0,0.473,0.018c0.018,0,0.057,0,0.074,0C124.32,43.474,124.357,43.474,124.395,43.493z"/>
			<path fill="#010101" d="M124.018,44.589h-0.02c-0.34-0.039-0.643,0.057-0.926,0.245c-0.32,0.208-0.547,0.511-0.623,0.944l0,0
				c-0.094,0.378-0.02,0.736,0.227,1.059v0.019l5.971,9.068h0.018c0.227,0.321,0.529,0.528,0.908,0.624
				c0.396,0.037,0.756-0.02,1.113-0.246c0.02-0.02,0.039-0.037,0.057-0.037c0.285-0.228,0.455-0.529,0.549-0.869v0.037
				c0.02-0.207,0.02-0.416,0-0.586c-0.02-0.188-0.094-0.377-0.227-0.547l-5.988-9.051c-0.209-0.34-0.512-0.566-0.889-0.604
				c-0.02-0.02-0.02-0.02-0.037-0.02c-0.039-0.037-0.076-0.037-0.113-0.037C124.018,44.589,124.018,44.589,124.018,44.589z"/>
			<path fill="#010101" d="M121.713,47.497c-0.34-0.453-0.473-0.925-0.453-1.473l-2.4-3.514l-0.453,2.795l-2.021-0.227l3.854,5.725
				c0.396,0.605,0.945,0.964,1.682,1.115c0.68,0.132,1.342,0,1.928-0.416l0.359-0.246l-2.514-3.76H121.713z"/>
			<path fill="#010101" d="M127.682,56.548L127.682,56.548l-0.264-0.397l-0.283,0.737c-0.303,0.661-0.303,1.322,0,2.002
				c0.264,0.662,0.736,1.134,1.416,1.398l9.711,4.023c0.682,0.266,1.342,0.266,2.004,0c0.66-0.283,1.133-0.755,1.416-1.416
				l0.15-0.321l-3.248-1.87c-0.02-0.02-0.02-0.02-0.02-0.057c-0.416,0.113-0.775,0.094-1.133-0.038l-5.707-2.362
				c-0.357-0.15-0.66-0.396-0.83-0.736c-0.492,0.208-1.021,0.265-1.531,0.17h-0.037C128.627,57.53,128.061,57.151,127.682,56.548z"
				/>
			<path fill="#010101" d="M133.369,54.261l4.988,2.041c0.264-0.189,0.547-0.321,0.887-0.416c0.699-0.188,1.322-0.094,1.965,0.265
				l2.627,1.512c0.133-0.567,0.113-1.134-0.133-1.7c-0.264-0.699-0.736-1.152-1.398-1.436l-9.729-3.986
				c-0.699-0.303-1.361-0.303-2.021,0c-0.152,0.057-0.283,0.132-0.416,0.227l1.908,2.891c0.094,0.15,0.189,0.34,0.264,0.51
				C132.689,54.072,133.029,54.091,133.369,54.261z"/>
			<path fill="#010101" d="M139,57.284c-0.133,0.113-0.246,0.246-0.342,0.435l0,0c-0.207,0.34-0.264,0.718-0.17,1.077
				c0.096,0.34,0.303,0.604,0.586,0.812c0.057,0.019,0.076,0.057,0.152,0.094l9.352,5.404c0.057,0.037,0.094,0.074,0.17,0.113
				c0.283,0.131,0.604,0.17,0.963,0.057c0.396-0.096,0.68-0.341,0.889-0.662c0.15-0.264,0.227-0.529,0.207-0.793l0,0
				c-0.018-0.095-0.037-0.227-0.057-0.321c-0.094-0.397-0.34-0.681-0.68-0.907l-9.428-5.441c-0.359-0.207-0.736-0.245-1.096-0.15
				c-0.227,0.057-0.416,0.15-0.566,0.283H139z"/>
			<path fill="#010101" d="M151.656,58.531c-0.697-0.208-1.359-0.114-1.982,0.227l-2.021,1.096l3.004,1.738
				c0.643,0.378,1.039,0.907,1.229,1.606l0,0c0.037,0.17,0.074,0.358,0.094,0.528c0,0.095,0,0.227,0,0.321l2.531,4.572v-0.02
				c0.17,0.303,0.227,0.643,0.207,0.982c0.076,0.02,0.152,0.057,0.229,0.095h-0.02c0.643,0.283,1.096,0.812,1.342,1.511v-0.018
				l0.566,1.662l0.434-0.246c0.662-0.359,1.059-0.869,1.266-1.587c0.209-0.698,0.133-1.36-0.227-1.983l-5.1-9.22
				C152.867,59.136,152.338,58.739,151.656,58.531z"/>
			<path fill="#010101" d="M148.162,66.22c-0.02-0.018-0.037-0.018-0.057-0.037s-0.037-0.02-0.037-0.02
				c-0.039-0.018-0.039-0.018-0.057-0.018l-4.385-2.532c-0.018,0.435,0.096,0.869,0.322,1.284l5.102,9.221
				c0.34,0.642,0.85,1.039,1.549,1.266c0.529,0.132,1.057,0.132,1.549-0.02l-0.832-2.475v0.019
				c-0.207-0.548-0.227-1.077-0.074-1.624c-0.209-0.133-0.379-0.341-0.512-0.586l-2.436-4.422
				C148.238,66.259,148.199,66.239,148.162,66.22z"/>
			<path fill="#010101" d="M154.434,70.735L154.434,70.735c-0.15-0.057-0.264-0.132-0.357-0.15l0.018,0.019
				c-0.244-0.038-0.529-0.019-0.793,0.075c-0.359,0.113-0.643,0.321-0.812,0.662c-0.02,0.018-0.02,0.057-0.037,0.094
				c-0.17,0.321-0.189,0.699-0.039,1.059c0,0,0,0,0.02,0.019l3.533,10.315c0.037,0.094,0.094,0.227,0.17,0.32v0.02
				c0.133,0.189,0.32,0.34,0.586,0.473h-0.02c0.379,0.17,0.736,0.188,1.135,0.075h-0.02c0.359-0.151,0.643-0.358,0.793-0.681
				c0-0.037,0-0.057,0.037-0.057c0.172-0.377,0.209-0.756,0.076-1.133l-3.551-10.277C155.02,71.171,154.793,70.905,154.434,70.735z"
				/>
			<path fill="#010101" d="M153.188,78.331c-0.02,0.018-0.057,0.037-0.076,0.075c-0.547,0.472-0.83,1.077-0.85,1.794l-0.492,10.523
				c-0.037,0.379,0.02,0.699,0.133,1.021l2.967-3.665l-0.037,0.057c0.057-0.094,0.113-0.151,0.17-0.227
				c0.018-0.02,0.018-0.02,0.018-0.02l0.189-3.986c-0.02-0.075-0.037-0.094-0.076-0.15c-0.113-0.17-0.207-0.359-0.264-0.566
				L153.188,78.331z"/>
			<path fill="#010101" d="M159.818,81.485c0.227,0.643,0.189,1.266-0.076,1.89c-0.018,0.057-0.037,0.132-0.113,0.208
				c-0.037,0.057-0.074,0.15-0.113,0.207l-0.227,4.855c0.057,0.095,0.096,0.189,0.133,0.303v-0.02
				c0.037,0.152,0.076,0.303,0.094,0.511v0.019c0.076,0.699-0.094,1.342-0.547,1.908l-1.795,2.229l2.398,0.132
				c0.719,0.02,1.342-0.207,1.891-0.699c0.529-0.472,0.812-1.076,0.85-1.812l0.51-10.505c0.02-0.718-0.189-1.36-0.68-1.89
				c-0.492-0.51-1.096-0.812-1.814-0.85l-1.738-0.095l1.229,3.59V81.485z"/>
			<path fill="#010101" d="M148.975,97.28c-0.02,0.018-0.02,0.018-0.02,0.018c-0.189,0.209-0.283,0.453-0.303,0.719
				c0,0.02,0,0.057,0,0.076c-0.018,0.057-0.018,0.131,0,0.227c0,0,0,0,0,0.037c0.02,0.377,0.209,0.719,0.512,0.963
				c0.32,0.266,0.66,0.359,1.076,0.322c0.02,0,0.037,0,0.057,0s0.037,0,0.057,0c0.32-0.057,0.623-0.266,0.869-0.566l6.84-8.445
				v0.019c0.244-0.321,0.34-0.681,0.283-1.077v-0.019c-0.02-0.095-0.02-0.188-0.039-0.245v-0.02c-0.094-0.283-0.244-0.51-0.471-0.68
				c-0.322-0.265-0.662-0.379-1.078-0.34c-0.359,0.057-0.68,0.188-0.906,0.49c-0.02,0.02-0.039,0.038-0.076,0.057L148.975,97.28z"/>
			<path fill="#010101" d="M40.079,34.765l0.189-0.095l2.833-5.026c-1.567,0.02-3.117,0.058-4.647,0.076L40.079,34.765z"/>
			<path fill="#010101" d="M48.939,35.69l-2.815,3.211l3.816,0.453L48.939,35.69z"/>
			<path fill="#010101" d="M48.75,26.696l-2.531,5.083l4.609-2.929l-0.133,0.076L48.75,26.696z"/>
			<path fill="#010101" d="M18.711,56.944v0.019c-0.076,0.151-0.113,0.321-0.133,0.491c-0.02,0.189,0.02,0.416,0.094,0.623
				c0,0,0,0,0.02,0.02c0.133,0.378,0.378,0.623,0.756,0.793c0.359,0.17,0.718,0.17,1.115,0.038c0,0,0,0,0.018,0l0.34-0.113h-0.018
				l9.861-3.608c0.378-0.133,0.662-0.396,0.832-0.736c0.057-0.133,0.094-0.246,0.094-0.359v0.02
				c0.076-0.246,0.057-0.529-0.037-0.795l0,0c-0.152-0.396-0.397-0.66-0.737-0.85c-0.265-0.094-0.548-0.15-0.812-0.094
				c-0.019,0-0.019,0-0.019,0c-0.096,0-0.189,0.037-0.283,0.057c-0.02,0-0.02,0-0.02,0l-10.24,3.74
				C19.165,56.321,18.881,56.585,18.711,56.944z"/>
			<path fill="#010101" d="M15.235,63.462c0.17-0.246,0.283-0.491,0.283-0.756c0-0.113,0-0.245,0-0.359
				c-0.076-0.377-0.283-0.698-0.605-0.925c-0.32-0.245-0.66-0.341-1.057-0.284c-0.266,0.039-0.492,0.133-0.662,0.266
				c-0.113,0.094-0.207,0.188-0.303,0.34h-0.018l-6.48,8.747v0.019c-0.265,0.303-0.34,0.643-0.283,1.039c0,0.038,0,0.076,0,0.095
				s0,0.057,0.019,0.075c0.075,0.321,0.265,0.586,0.548,0.794c0.32,0.265,0.68,0.358,1.076,0.302
				c0.303-0.057,0.549-0.17,0.775-0.358c0.076-0.058,0.133-0.151,0.189-0.228L15.235,63.462z"/>
			<path fill="#010101" d="M4.692,77.896c-0.018,0.038-0.037,0.076-0.057,0.095c-0.283,0.284-0.377,0.643-0.377,1.04l0.717,10.9
				c0,0.02,0,0.02,0,0.037c0,0.096,0.039,0.189,0.076,0.283v0.02c0.057,0.265,0.208,0.473,0.436,0.661
				C5.77,91.177,6.11,91.31,6.526,91.29c0.414-0.018,0.755-0.188,1.02-0.51v0.02c0.189-0.208,0.303-0.453,0.34-0.699
				c0.02-0.133,0.02-0.246,0-0.34v-0.02L7.186,78.859c-0.019-0.265-0.113-0.528-0.227-0.737v0.02
				c-0.076-0.113-0.189-0.208-0.283-0.283c-0.283-0.283-0.643-0.396-1.039-0.359l0,0C5.259,77.519,4.938,77.669,4.692,77.896z"/>
			<path fill="#010101" d="M17.653,56.452L17.653,56.452c0.303-0.66,0.812-1.096,1.492-1.359l3.27-1.19l-0.133-0.188
				c-0.379-0.624-0.926-1.039-1.625-1.19c-0.699-0.171-1.36-0.038-1.984,0.321L9.7,58.38c-0.643,0.378-1.021,0.906-1.191,1.605
				c-0.188,0.719-0.057,1.379,0.34,1.984l1.078,1.795l2.021-2.702v-0.038c0.17-0.227,0.358-0.415,0.547-0.566
				c0.096-0.037,0.17-0.094,0.266-0.17c0.131-0.15,0.301-0.303,0.472-0.396l4.175-2.588C17.426,57.02,17.52,56.736,17.653,56.452z"
				/>
			<path fill="#010101" d="M39.341,39.601c-0.019,0.076-0.057,0.17-0.095,0.227l-3.703,5.365v0.02
				c-0.207,0.264-0.283,0.566-0.245,0.888c0,0.019,0,0.038,0,0.057c0,0.038,0,0.075,0.019,0.114
				c0.057,0.396,0.266,0.698,0.605,0.925l0,0c0.302,0.188,0.604,0.284,0.943,0.265c0.039-0.02,0.113-0.02,0.189-0.02h-0.019
				c0.397-0.094,0.698-0.302,0.926-0.623l3.948-5.705l-1.549-0.057l-0.208-1.285L39.341,39.601z"/>
			<path fill="#010101" d="M33.919,41.849c-0.718,0.095-1.304,0.436-1.7,1.021l-6.254,8.483c-0.32,0.472-0.51,0.926-0.51,1.454
				l3.91-1.454c0.209-0.057,0.396-0.113,0.605-0.152l3.494-4.723v0.037c0.17-0.264,0.379-0.453,0.662-0.604
				c0-0.492,0.132-0.964,0.473-1.398l1.436-2.078l-0.17-0.133C35.28,41.868,34.637,41.717,33.919,41.849z"/>
			<path fill="#010101" d="M33.278,54.034c-0.133,0.152-0.266,0.283-0.455,0.416c-0.037,0.151-0.094,0.303-0.15,0.453
				c0,0.02,0,0.02-0.02,0.038c-0.32,0.643-0.793,1.096-1.473,1.341l-1.965,0.719l1.605,1.189c0.586,0.436,1.247,0.586,1.965,0.473
				c0.699-0.094,1.266-0.453,1.701-1.039l6.252-8.502c0.416-0.566,0.568-1.228,0.473-1.927c-0.094-0.681-0.434-1.228-0.943-1.662
				l-1.342,1.946c-0.436,0.604-1.002,0.982-1.682,1.114c-0.02,0-0.02,0-0.038,0s-0.019,0-0.038,0
				c-0.057,0.151-0.132,0.302-0.227,0.435l-3.664,4.969V54.034z"/>
			<path fill="#010101" d="M21.205,59.948c-0.113,0.15-0.284,0.283-0.435,0.416l-4.08,2.475c-0.039,0.49-0.209,0.926-0.511,1.322
				l-2.683,3.627c0.623,0.076,1.189-0.057,1.738-0.377l8.992-5.536c0.623-0.378,1.002-0.926,1.191-1.624
				c0.113-0.643,0.057-1.21-0.209-1.776l-3.91,1.417c-0.02,0-0.02,0-0.02,0.037L21.205,59.948z"/>
			<path fill="#010101" d="M13.081,68.582c-0.02-0.075-0.057-0.095-0.057-0.151l-3.381,4.496c-0.096,0.133-0.209,0.246-0.341,0.397
				v-0.019c-0.057,0.057-0.095,0.094-0.151,0.132l-1.229,4.062c0.266,0.378,0.379,0.812,0.416,1.285l0.246,3.59
				c0.133-0.057,0.264-0.113,0.377-0.17c0.662-0.359,1.059-0.869,1.267-1.55l3.061-10.089C13.497,69.866,13.42,69.206,13.081,68.582
				z"/>
			<path fill="#010101" d="M8.075,66.259l-1.663-0.511c-0.681-0.208-1.341-0.132-1.965,0.188c-0.642,0.34-1.058,0.869-1.266,1.568
				L0.12,77.594c-0.207,0.681-0.15,1.341,0.209,1.983c0.32,0.643,0.85,1.059,1.529,1.266l1.398,0.436l-0.17-2.174
				c-0.057-0.68,0.17-1.322,0.643-1.832c-0.076-0.283-0.076-0.586,0.02-0.889v0.039l1.303-4.232
				c-0.037-0.076-0.037-0.151-0.076-0.246v-0.019c0-0.095-0.037-0.17-0.037-0.227c-0.076-0.718,0.076-1.36,0.51-1.927L8.075,66.259z
				"/>
			<path fill="#010101" d="M1.084,88.099c-0.566,0.434-0.889,1.02-0.982,1.756c-0.076,0.699,0.113,1.322,0.566,1.89l6.612,8.218
				c0.454,0.566,1.021,0.869,1.757,0.963c0.699,0.076,1.342-0.131,1.908-0.566l0.396-0.32l-2.738-1.889
				c-0.605-0.436-0.965-1.002-1.059-1.721v0.039c-0.113-0.416-0.095-0.795,0.02-1.152l-2.74-3.4
				c-0.057-0.058-0.094-0.076-0.133-0.096v-0.037c-0.377-0.34-0.643-0.719-0.773-1.172l0.018,0.02
				c-0.074-0.208-0.113-0.416-0.113-0.623l-0.264-3.93L1.084,88.099z"/>
			<path fill="#010101" d="M8.887,85.132c-0.039-0.057-0.096-0.094-0.133-0.17l0.303,4.704c0,0.188,0,0.397-0.02,0.604l2.664,3.307
				c0.133,0.17,0.227,0.34,0.283,0.51l0.02,0.02c0,0,0,0,0.018,0.018l3.553,2.438c0.264-0.377,0.434-0.832,0.491-1.303
				c0.075-0.719-0.114-1.38-0.548-1.928L8.887,85.132z"/>
			<path fill="#010101" d="M87.121,60.458c-0.436,0-1.021,0-1.758,0.037h1.758C87.121,60.458,87.121,60.458,87.121,60.458z"/>
			<path fill="#010101" d="M89.557,57.454c-0.453-0.926-2.248-4.591-5.326-10.977c-3.117-6.424-8.785-11.939-16.984-16.531
				l3.514-1.322l-0.964-5.006c1.72,2.701,4.081,4.27,7.047,4.703c4.799,0.624,7.557-0.926,8.313-4.686
				c0.207-1.096,0.188-2.152-0.113-3.211c-5.724-2.607-11.488-5.158-17.269-7.651c-0.51-0.208-1.02-0.378-1.586-0.472l-13.131,18.4
				c4.894,9.428,10.713,18.516,17.438,27.205l-8.729,37.199c8.068,2.117,14.436,6.859,19.102,14.264
				c3.57-25.485,5.648-41.789,6.253-48.855c0,0,0,0,0-0.02h-1.758c0.736-0.037,1.322-0.037,1.758-0.037c0-0.037,0-0.037,0-0.037
				h0.887h0.096c-0.113-2.947,0.037-3.969,0.566-3.061L89.557,57.454z"/>
			<path fill="#010101" d="M89.557,57.454L88.67,57.36c-0.529-0.908-0.68,0.113-0.566,3.061h-0.096l0.096,0.074
				c-0.852,7.066-2.57,23.711-5.195,49.934c0.301,0.02,0.604,0.057,0.906,0.113c3.664-6.234,8.463-10.713,14.34-13.451
				c-0.398-16.568-0.643-27.055-0.682-31.513c0-1.096,0.246-2.003,0.756-2.739c5.139-7.52,7.822-15.852,8.029-25.052l-9.521,6.046
				c-0.188-0.151-0.377-0.303-0.51-0.473c-4.818-5.63-11.486-8.672-19.931-9.088c6.63,5.215,11.24,12.961,13.886,23.201l0.736,0.132
				L89.557,57.454z"/>
			<path fill="#010101" d="M147.482,97.847c0.057-0.473,0.244-0.906,0.586-1.322l2.172-2.702c-0.264-0.132-0.566-0.227-0.889-0.265
				c-0.699-0.113-1.34,0.038-1.908,0.473l-3.23,2.398c-0.416-0.566-0.812-1.113-1.227-1.662c-0.02,0.02-0.02,0.02-0.039,0.037
				c-1.172,1.248-2.438,2.344-3.816,3.346v0.018c-1.662,1.191-3.438,2.191-5.346,2.986c-2.93,1.227-6.197,2.021-9.768,2.361
				c-2.135,0.227-4.383,0.244-6.727,0.15c-7.896-0.359-14.17,0.416-18.893,2.305c-1.793,0.719-3.4,1.605-4.74,2.645v0.02
				c-0.568,0.436-1.078,0.832-1.551,1.209c-1.682,1.342-3.021,2.494-4.043,3.459c0.039,0.037,0.076,0.074,0.113,0.113
				c1.494-1.418,3.137-2.646,4.912-3.686c1.664-0.982,3.42-1.795,5.328-2.475c5.875-2.059,12.941-2.664,21.16-1.832
				c0.207,0.018,0.396,0.057,0.623,0.074c2.248,0.209,4.383,0.34,6.367,0.398c1.699,0.037,3.305,0.018,4.799-0.059
				c4.76-0.244,8.615-1.096,11.637-2.531h-0.018c0.527-0.264,1-0.547,1.51-0.83c0.908-0.605,1.721-1.229,2.438-1.947
				c0-0.037,0-0.037,0.02-0.037c-0.322-0.51-0.643-1.02-0.963-1.512L147.482,97.847z"/>
			<path fill="#010101" d="M153.678,102.513c0.586-0.416,0.945-0.982,1.039-1.701c0.096-0.717-0.074-1.359-0.471-1.926l-0.643-0.869
				l-1.455,1.812h-0.02c-0.434,0.529-0.963,0.832-1.568,0.945c-0.094,0.189-0.264,0.379-0.471,0.51v0.02l-1.852,1.342
				c-0.113-0.209-0.227-0.396-0.322-0.586c-1.189,1.189-2.645,2.211-4.346,3.061c-4.27,2.078-10.295,2.984-18.023,2.684
				c-0.264-0.02-0.49-0.02-0.736-0.039c-0.623,0-1.266-0.037-1.908-0.094c-0.982-0.076-2.021-0.17-3.061-0.266
				c-0.15-0.018-0.264-0.018-0.416-0.037c-13.301-1.379-23.445,1.152-30.34,7.633c0,0.02,0,0.057,0.018,0.076
				c5.65-3.627,10.996-5.385,16.002-5.271c3.949,0.037,9.145,0.51,15.568,1.342c1.246,0.15,2.512,0.32,3.854,0.51
				c0.49,0.057,1.002,0.113,1.512,0.189c0.49,0.074,0.945,0.15,1.436,0.227c0.945,0.15,1.908,0.246,2.854,0.34
				c6.045,0.623,11.523,0.246,16.398-1.076c1.643-0.436,3.25-1.021,4.779-1.684c-0.49-1.359-1.096-2.758-1.795-4.193
				L153.678,102.513z"/>
			<path fill="#010101" d="M147.066,113.245c-5.801,1.566-12.395,1.832-19.781,0.754c-0.301-0.057-0.566-0.094-0.85-0.131
				c-0.793-0.113-1.568-0.227-2.324-0.322c-0.529-0.074-1.039-0.15-1.512-0.207c-1.34-0.17-2.645-0.359-3.891-0.51
				c-5.555-0.662-10.09-1.021-13.623-1.078c-4.553-0.094-9.369,1.418-14.488,4.555h62.457c-0.131-1.568-0.453-3.176-0.943-4.855
				h-0.02C150.467,112.167,148.805,112.753,147.066,113.245z"/>
			<path fill="#010101" d="M136.656,87.399c-0.037,0.037-0.076,0.075-0.076,0.094c-0.736,0.793-2.531,2.645-5.326,5.535
				c-2.91,2.986-9.787,5.139-20.67,6.518c-4.516,0.568-8.576,1.738-12.26,3.533c-3.703,1.795-7.047,4.232-9.977,7.312
				c-0.434,0.453-0.869,0.945-1.303,1.416c0.49-0.434,1.02-0.943,1.662-1.492c1.115-0.963,2.475-2.078,4.082-3.324h0.037
				c1.529-1.229,3.381-2.268,5.516-3.061c4.838-1.814,11.166-2.551,18.988-2.211c8.576,0.377,15.566-1.361,21.008-5.252
				c1.266-0.908,2.455-1.928,3.553-3.08c-0.738-0.926-1.494-1.832-2.287-2.739C138.621,89.515,137.639,88.438,136.656,87.399z"/>
			<path fill="#010101" d="M135.447,86.151c-1.928-1.926-3.854-3.684-5.801-5.289c-0.094,1.625-1.379,4.043-3.816,7.254
				c-2.758,3.666-9.199,6.48-19.383,8.352c-2.967,0.566-5.725,1.455-8.219,2.664c-5.082,2.492-9.256,6.348-12.562,11.6
				c3.57-4.252,7.764-7.482,12.602-9.73c3.664-1.699,7.727-2.834,12.146-3.381c10.447-1.285,17.061-3.325,19.838-6.084
				C132.936,88.797,134.672,87.003,135.447,86.151z"/>
			<path fill="#010101" d="M87.611,116.646c-0.264-0.908-0.699-1.738-1.322-2.477c-0.982-1.189-2.211-1.756-3.627-1.793
				c-1.435,0.037-2.645,0.604-3.666,1.793c-0.623,0.738-1.058,1.568-1.303,2.477H87.611z"/>
			<path fill="#010101" d="M61.352,96.997c-0.795-0.209-1.568-0.379-2.362-0.529c-10.183-1.871-16.644-4.686-19.403-8.352
				c-2.437-3.211-3.703-5.629-3.797-7.254c-1.965,1.605-3.893,3.363-5.801,5.289c0.756,0.852,2.494,2.646,5.196,5.385
				c2.777,2.759,9.39,4.799,19.837,6.084c2.041,0.264,4.024,0.643,5.914,1.133c7.52,2.002,13.791,6.008,18.816,11.979
				C75.256,103.571,69.116,99.019,61.352,96.997z"/>
			<path fill="#010101" d="M28.856,87.493c-0.02-0.019-0.076-0.057-0.094-0.094c-0.982,1.039-1.965,2.115-2.947,3.249
				c-0.812,0.907-1.568,1.813-2.268,2.739c1.076,1.152,2.268,2.172,3.552,3.08c5.423,3.891,12.413,5.629,20.989,5.252
				c4.496-0.209,8.502-0.039,12.016,0.473c5.291,0.793,9.447,2.379,12.508,4.799c1.699,1.322,3.136,2.475,4.288,3.494
				c0.567,0.473,1.039,0.926,1.493,1.322c-0.359-0.414-0.756-0.812-1.115-1.227c-4.629-4.895-10.202-8.201-16.795-9.939
				c-1.814-0.49-3.666-0.85-5.631-1.096c-10.9-1.379-17.777-3.531-20.649-6.518C31.35,90.138,29.575,88.286,28.856,87.493z"/>
			<path fill="#010101" d="M22.471,94.804c-0.02-0.018-0.02-0.018-0.02-0.037c-1.134,1.455-2.191,2.928-3.137,4.365
				c-0.207,0.34-0.396,0.66-0.623,1l-7.33-5.062l0.019,0.037l-0.435-0.303c0-0.018,0-0.018-0.02-0.018
				c-0.34-0.246-0.717-0.303-1.076-0.246c-0.416,0.076-0.718,0.283-0.945,0.605c-0.018,0-0.018,0.018-0.018,0.057
				c-0.096,0.094-0.152,0.227-0.189,0.357v0.02c-0.057,0.227-0.076,0.436-0.02,0.643v0.02c0.057,0.414,0.266,0.717,0.586,0.943
				l7.936,5.461c-0.209,0.34-0.396,0.68-0.566,1c-0.076,0.152-0.152,0.303-0.246,0.436c-1.002,1.928-1.832,3.779-2.475,5.572
				c1.529,0.662,3.117,1.248,4.779,1.684c5.648,1.51,12.072,1.756,19.252,0.736c8.35-1.229,15.02-1.965,20.12-2.191
				c0.794-0.039,1.511-0.059,2.249-0.076c0.227,0,0.471,0,0.698,0c4.761,0.037,9.843,1.775,15.19,5.176
				c0.037,0,0.037-0.018,0.037-0.057c-3.816-3.551-8.635-5.912-14.416-7.064c-0.264-0.057-0.547-0.096-0.793-0.133
				c-2.551-0.473-5.289-0.719-8.218-0.719c-0.245,0-0.511,0-0.756,0c-1.965,0.02-3.968,0.152-6.083,0.359
				c-2.57,0.283-5.025,0.416-7.312,0.492c-2.663,0.057-5.1-0.057-7.33-0.285c-3.777-0.396-6.914-1.227-9.465-2.455h-0.02
				c-0.49-0.246-0.926-0.492-1.359-0.756c-0.416-0.246-0.812-0.51-1.172-0.756c-0.66-0.51-1.266-1.002-1.795-1.549
				c0-0.02,0-0.037-0.018-0.037c-0.189-0.17-0.284-0.398-0.303-0.662c-0.02-0.264,0.057-0.51,0.189-0.719
				c0.131-0.207,0.32-0.34,0.527-0.34c0.209-0.037,0.397,0.039,0.549,0.189c0.02,0,0.02,0,0.037,0.037
				c0.605,0.586,1.266,1.152,2.021,1.664c0.34,0.244,0.699,0.453,1.059,0.66c0.283,0.152,0.548,0.322,0.85,0.453
				c1.172,0.549,2.457,1.021,3.93,1.418c2.381,0.623,5.121,0.982,8.219,1.133c3.325,0.133,7.104,0,11.279-0.434
				c2.418-0.266,4.723-0.379,6.952-0.379c1.437,0,2.89,0.076,4.288,0.189c0.756,0.057,1.492,0.133,2.248,0.227
				c4.44,0.586,8.389,1.795,11.828,3.627c2.191,1.154,4.213,2.57,6.008,4.252c0.018-0.037,0.057-0.076,0.094-0.113
				c-1.115-1.039-2.551-2.268-4.402-3.742c-0.359-0.301-0.736-0.566-1.096-0.85l-0.019-0.02c-2.929-2.266-6.991-3.797-12.091-4.514
				c-3.363-0.492-7.217-0.625-11.525-0.436c-8.917,0.416-16.19-1.416-21.858-5.498v-0.018
				C24.907,97.147,23.641,96.052,22.471,94.804z"/>
			<path fill="#010101" d="M74.822,116.306c-5.101-3.137-9.956-4.648-14.491-4.555c-5.214,0.096-12.602,0.832-22.198,2.248
				c-7.388,1.078-13.962,0.812-19.78-0.754l0,0c-1.738-0.492-3.4-1.078-5.007-1.795h-0.019c-0.492,1.68-0.832,3.287-0.964,4.855
				H74.822z"/>
		</g>
	</g>
	<g>
		<path fill="#010101" d="M39.329,139.409h-5.256l-1.277-3.176c-0.469-1.162-0.89-2.012-1.265-2.55s-0.74-0.882-1.095-1.033
			c-0.355-0.15-0.814-0.226-1.376-0.226h-0.551v6.984h-4.906v-17.875h8.332c1.344,0,2.445,0.301,3.305,0.902s1.479,1.332,1.857,2.19
			c0.379,0.859,0.568,1.676,0.568,2.449c0,0.902-0.158,1.665-0.474,2.288s-0.649,1.076-1,1.359
			c-0.351,0.284-0.745,0.555-1.182,0.812c0.523,0.335,0.954,0.733,1.293,1.193c0.34,0.461,0.802,1.393,1.388,2.795L39.329,139.409z
			 M32.681,127.185c0-0.823-0.246-1.398-0.738-1.724c-0.492-0.326-1.293-0.489-2.402-0.489h-1.031v4.297h1.055
			c1.195,0,2.014-0.144,2.455-0.431C32.46,128.55,32.681,127.999,32.681,127.185z"/>
		<path fill="#010101" d="M53.57,139.409H41.316v-17.875h12.055v3.594h-7.148v3.266h6.82v3.594h-6.82v3.828h7.348V139.409z"/>
		<path fill="#010101" d="M74.447,139.409h-5.016l-1.324-3.625h-7.055l-1.348,3.625h-5.015l7.183-17.875h5.414L74.447,139.409z
			 M66.982,132.675l-2.379-6.516l-2.402,6.516H66.982z"/>
		<path fill="#010101" d="M93.059,130.797c0,1.831-0.303,3.3-0.908,4.408c-0.607,1.109-1.32,2.007-2.141,2.694
			c-1.164,1.007-2.794,1.51-4.888,1.51h-0.246h-8.521v-17.875h6.75c1.016,0,1.886,0.059,2.608,0.175s1.374,0.28,1.952,0.491
			s1.07,0.448,1.477,0.711s0.77,0.545,1.09,0.847c0.555,0.498,1.041,1.087,1.46,1.766c0.419,0.68,0.751,1.466,0.997,2.359
			C92.936,128.777,93.059,129.748,93.059,130.797z M88.074,130.565c0-1.452-0.252-2.584-0.756-3.396
			c-0.502-0.812-1.107-1.354-1.813-1.63c-0.706-0.274-1.427-0.412-2.159-0.412h-2.084v10.578h2.084c1.279,0,2.387-0.335,3.324-1.005
			C87.605,134.031,88.074,132.652,88.074,130.565z"/>
		<path fill="#010101" d="M108.092,139.409H95.838v-17.875h12.055v3.594h-7.148v3.266h6.82v3.594h-6.82v3.828h7.348V139.409z"/>
		<path fill="#010101" d="M126.852,139.409h-5.256l-1.277-3.176c-0.469-1.162-0.89-2.012-1.264-2.55
			c-0.375-0.538-0.74-0.882-1.096-1.033c-0.355-0.15-0.814-0.226-1.377-0.226h-0.551v6.984h-4.906v-17.875h8.332
			c1.344,0,2.445,0.301,3.305,0.902s1.479,1.332,1.857,2.19c0.379,0.859,0.568,1.676,0.568,2.449c0,0.902-0.158,1.665-0.473,2.288
			c-0.316,0.623-0.65,1.076-1.002,1.359c-0.35,0.284-0.744,0.555-1.182,0.812c0.523,0.335,0.955,0.733,1.295,1.193
			c0.339,0.461,0.801,1.393,1.387,2.795L126.852,139.409z M120.203,127.185c0-0.823-0.246-1.398-0.738-1.724
			c-0.492-0.326-1.293-0.489-2.402-0.489h-1.031v4.297h1.055c1.195,0,2.014-0.144,2.455-0.431
			C119.982,128.55,120.203,127.999,120.203,127.185z"/>
		<path fill="#010101" d="M140.197,134.212c0,1.118-0.26,2.086-0.779,2.903c-0.52,0.816-1.244,1.442-2.174,1.877
			c-0.93,0.434-1.996,0.651-3.199,0.651c-0.336,0-0.748-0.023-1.236-0.071c-0.488-0.047-1.137-0.179-1.945-0.394
			s-1.65-0.533-2.525-0.955v-4.387c0.82,0.559,1.625,1.023,2.418,1.393c0.791,0.37,1.641,0.555,2.545,0.555
			c0.836,0,1.376-0.152,1.621-0.458c0.246-0.305,0.369-0.59,0.369-0.856c0-0.481-0.211-0.887-0.631-1.218
			c-0.422-0.331-1.034-0.673-1.838-1.024c-0.889-0.413-1.67-0.861-2.342-1.347c-0.671-0.485-1.219-1.094-1.645-1.823
			c-0.426-0.73-0.639-1.594-0.639-2.591c0-0.962,0.215-1.832,0.645-2.609s1.086-1.398,1.969-1.862s1.961-0.695,3.234-0.695
			c0.906,0,1.744,0.097,2.514,0.29s1.404,0.41,1.904,0.65s0.844,0.43,1.031,0.566v4.189c-0.666-0.524-1.406-0.993-2.223-1.405
			c-0.816-0.413-1.689-0.619-2.619-0.619c-0.611,0-1.053,0.129-1.326,0.387s-0.41,0.575-0.41,0.953c0,0.353,0.137,0.657,0.41,0.915
			s0.76,0.571,1.463,0.941c1.25,0.645,2.252,1.224,3.004,1.739c0.75,0.516,1.339,1.11,1.766,1.785
			C139.984,132.367,140.197,133.207,140.197,134.212z"/>
		<path fill="#010101" d="M40.96,162.409h-5.016l-1.324-3.625h-7.055l-1.348,3.625h-5.016l7.184-17.875H33.8L40.96,162.409z
			 M33.495,155.675l-2.379-6.516l-2.402,6.516H33.495z"/>
		<path fill="#010101" d="M57.857,161.149c-0.352,0.146-0.653,0.266-0.903,0.36s-0.491,0.181-0.721,0.258s-0.565,0.176-1.003,0.296
			c-0.742,0.189-1.482,0.333-2.221,0.432s-1.518,0.148-2.338,0.148c-1.649,0-3.172-0.331-4.571-0.992
			c-1.398-0.662-2.518-1.688-3.358-3.081c-0.84-1.392-1.26-3.102-1.26-5.129c0-1.307,0.216-2.589,0.649-3.848
			s1.094-2.266,1.983-3.022c0.735-0.628,1.479-1.107,2.234-1.438c0.754-0.332,1.491-0.554,2.21-0.665
			c0.719-0.112,1.513-0.168,2.38-0.168c1.431,0,2.611,0.118,3.541,0.354c0.931,0.237,1.951,0.549,3.061,0.937v4.231
			c-0.735-0.473-1.513-0.868-2.334-1.187c-0.821-0.317-1.846-0.477-3.074-0.477c-1.416,0-2.547,0.294-3.396,0.883
			s-1.439,1.291-1.771,2.107c-0.333,0.816-0.499,1.606-0.499,2.371c0,0.902,0.191,1.733,0.575,2.494
			c0.383,0.76,0.962,1.37,1.736,1.83s1.709,0.689,2.804,0.689c0.626,0,1.291-0.091,1.995-0.271v-2.104h-2.203v-3.594h6.484V161.149z
			"/>
		<path fill="#010101" d="M78.964,162.409h-5.016l-1.324-3.625H65.57l-1.348,3.625h-5.015l7.183-17.875h5.414L78.964,162.409z
			 M71.5,155.675l-2.379-6.516l-2.402,6.516H71.5z"/>
		<path fill="#010101" d="M85.811,162.409h-4.906v-17.875h4.906V162.409z"/>
		<path fill="#010101" d="M107.297,162.409h-4.363l-8.418-9.953v9.953h-4.844v-17.875h4.34l8.395,9.906v-9.906h4.891V162.409z"/>
		<path fill="#010101" d="M122.49,157.212c0,1.118-0.26,2.086-0.779,2.903c-0.52,0.816-1.244,1.442-2.174,1.877
			c-0.93,0.434-1.996,0.651-3.199,0.651c-0.336,0-0.748-0.023-1.236-0.071c-0.488-0.047-1.137-0.179-1.945-0.394
			s-1.65-0.533-2.525-0.955v-4.387c0.82,0.559,1.625,1.023,2.418,1.393c0.791,0.37,1.641,0.555,2.545,0.555
			c0.836,0,1.376-0.152,1.621-0.458c0.246-0.305,0.369-0.59,0.369-0.856c0-0.481-0.211-0.887-0.631-1.218
			c-0.422-0.331-1.034-0.673-1.838-1.024c-0.889-0.413-1.67-0.861-2.342-1.347c-0.671-0.485-1.219-1.094-1.645-1.823
			c-0.426-0.73-0.639-1.594-0.639-2.591c0-0.962,0.215-1.832,0.645-2.609s1.086-1.398,1.969-1.862s1.961-0.695,3.234-0.695
			c0.906,0,1.744,0.097,2.514,0.29s1.404,0.41,1.904,0.65s0.844,0.43,1.031,0.566v4.189c-0.666-0.524-1.406-0.993-2.223-1.405
			c-0.816-0.413-1.689-0.619-2.619-0.619c-0.611,0-1.053,0.129-1.326,0.387s-0.41,0.575-0.41,0.953c0,0.353,0.137,0.657,0.41,0.915
			s0.76,0.571,1.463,0.941c1.25,0.645,2.252,1.224,3.004,1.739c0.75,0.516,1.339,1.11,1.766,1.785
			C122.277,155.367,122.49,156.207,122.49,157.212z"/>
		<path fill="#010101" d="M141.152,148.878h-5.953v13.531h-4.891v-13.531h-5.953v-4.344h16.797V148.878z"/>
		<path fill="#010101" d="M70.171,176.797c0,1.831-0.303,3.3-0.909,4.408c-0.606,1.109-1.32,2.007-2.14,2.694
			c-1.165,1.007-2.794,1.51-4.888,1.51h-0.246h-8.52v-17.875h6.75c1.016,0,1.885,0.059,2.607,0.175s1.374,0.28,1.952,0.491
			s1.071,0.448,1.477,0.711s0.77,0.545,1.09,0.847c0.555,0.498,1.042,1.087,1.46,1.766c0.418,0.68,0.751,1.466,0.997,2.359
			C70.048,174.777,70.171,175.748,70.171,176.797z M65.187,176.565c0-1.452-0.251-2.584-0.755-3.396s-1.108-1.354-1.814-1.63
			c-0.706-0.274-1.426-0.412-2.159-0.412h-2.083v10.578h2.083c1.279,0,2.388-0.335,3.324-1.005S65.187,178.652,65.187,176.565z"/>
		<path fill="#010101" d="M88.678,185.409h-5.256l-1.277-3.176c-0.469-1.162-0.891-2.012-1.266-2.55s-0.74-0.882-1.095-1.033
			c-0.355-0.15-0.814-0.226-1.377-0.226h-0.55v6.984h-4.906v-17.875h8.332c1.344,0,2.445,0.301,3.305,0.902s1.479,1.332,1.857,2.19
			c0.379,0.859,0.568,1.676,0.568,2.449c0,0.902-0.158,1.665-0.475,2.288c-0.314,0.623-0.648,1.076-1,1.359
			c-0.352,0.284-0.744,0.555-1.182,0.812c0.523,0.335,0.955,0.733,1.294,1.193c0.339,0.461,0.802,1.393,1.388,2.795L88.678,185.409z
			 M82.029,173.185c0-0.823-0.246-1.398-0.738-1.724c-0.492-0.326-1.293-0.489-2.402-0.489h-1.031v4.297h1.055
			c1.195,0,2.014-0.144,2.455-0.431C81.809,174.55,82.029,173.999,82.029,173.185z"/>
		<path fill="#010101" d="M109.57,185.409h-4.906V175.05l-4.418,6h-0.387l-4.43-6v10.359h-4.766v-17.875h4.449l4.992,6.703
			l5.016-6.703h4.449V185.409z"/>
	</g>
</g>
</svg>
